<svg width="25" height="24" viewBox="0 0 25 24" fill="none" xmlns="http://www.w3.org/2000/svg">
<g clip-path="url(#clip0_4_2552)">
<path d="M16.1183 23.0803C15.5858 23.0561 15.0574 22.9756 14.5418 22.8404C13.8592 22.6681 13.1598 22.5713 12.4561 22.5515C11.7454 22.5692 11.0383 22.6594 10.346 22.8208C9.01425 23.0901 7.86369 23.3104 6.80126 22.1647C5.05829 20.2847 2.76207 17.4156 2.76207 14.1794C2.75083 11.6566 3.58704 9.20319 5.13663 7.21241C6.37531 5.65059 8.00078 6.04227 9.72416 6.45843C10.6047 6.70878 11.512 6.85341 12.4267 6.88928C13.3426 6.85332 14.2504 6.70366 15.1293 6.44374C16.8282 6.02269 18.4292 5.62122 19.663 7.14876C21.2567 9.14659 22.1203 11.6287 22.111 14.1843C22.111 16.6812 20.7646 19.3202 17.9984 22.2578C17.7651 22.5251 17.4756 22.7375 17.1505 22.8797C16.8255 23.0219 16.473 23.0904 16.1183 23.0803ZM12.4561 22.0619C13.2027 22.0814 13.9449 22.1832 14.6691 22.3655C15.8931 22.6299 16.7842 22.8257 17.6361 21.9199C20.2897 19.0754 21.5969 16.5491 21.5969 14.1794C21.6123 11.739 20.7955 9.36614 19.2811 7.45231C18.2481 6.16957 16.9213 6.4976 15.2468 6.91376C14.3295 7.1833 13.3822 7.33789 12.4267 7.37398C11.4741 7.33989 10.529 7.19196 9.61156 6.93334C7.90775 6.52208 6.56625 6.19894 5.52341 7.51107C4.04014 9.41638 3.24008 11.7648 3.25167 14.1794C3.25167 17.2394 5.47445 20.0105 7.13908 21.8269C8.02036 22.7816 8.9457 22.5956 10.2284 22.3165C10.9602 22.1551 11.7068 22.0697 12.4561 22.0619Z" fill="#283483"/>
<path d="M12.8477 7.24666H11.7069L11.6727 7.04103C11.6727 7.00186 11.0117 3.0459 10.3801 1.74357C10.3535 1.69563 10.3396 1.64172 10.3396 1.5869C10.3396 1.53208 10.3535 1.47817 10.3801 1.43023C10.5074 1.2197 10.953 1.09241 11.7167 1.05324H11.9126L11.9664 1.23929C12.4022 2.74235 12.7889 6.81581 12.8085 6.98717L12.8477 7.24666ZM12.1231 6.75706H12.3091C12.1512 5.01189 11.9012 3.27629 11.5601 1.55752C11.3321 1.57314 11.1059 1.60919 10.8844 1.66524C11.4474 2.96267 11.9664 5.93943 12.1231 6.75706Z" fill="#283483"/>
<path d="M14.2824 5.90514C13.6879 5.91648 13.0942 5.85399 12.515 5.71909L12.2065 5.63586L12.3681 5.35679C13.1013 4.16709 14.1281 3.18587 15.3498 2.50733C15.9171 2.24591 16.5335 2.1081 17.1581 2.10303C17.7827 2.09797 18.4013 2.22577 18.9728 2.47795C19.3645 2.64931 19.8834 2.93328 19.903 3.41798C19.9226 3.90268 19.3106 4.50489 17.8859 5.23928C16.7447 5.71127 15.517 5.93812 14.2824 5.90514ZM12.9752 5.31762C14.2726 5.54773 16.5493 5.37637 17.6656 4.80354C19.198 4.01529 19.4183 3.60403 19.4134 3.43267C19.4085 3.26131 19.1833 3.10464 18.777 2.94307C18.2741 2.71477 17.7282 2.59665 17.176 2.59665C16.6237 2.59665 16.0778 2.71477 15.575 2.94307C14.5344 3.52012 13.6439 4.33347 12.9752 5.31762Z" fill="#283483"/>
</g>
<defs>
<clipPath id="clip0_4_2552">
<rect width="23.5007" height="23.5007" fill="white" transform="translate(0.705811 0.470596)"/>
</clipPath>
</defs>
</svg>
