<svg width="24" height="24" viewBox="0 0 24 24" fill="none" xmlns="http://www.w3.org/2000/svg">
<path d="M5.17356 15.36L5.08621 15.326C4.48717 15.0857 3.9065 14.8018 3.34886 14.4768C3.09509 14.3063 2.88389 14.0798 2.73159 13.8148C2.57929 13.5497 2.48995 13.2532 2.47047 12.9481L2.29091 12.8559C2.19549 12.8058 2.1111 12.737 2.04274 12.6536C1.97439 12.5702 1.92346 12.474 1.89297 12.3706C1.86661 12.2685 1.86119 12.1621 1.87704 12.0579C1.89288 11.9536 1.92967 11.8536 1.98518 11.764C2.0968 11.5602 2.22783 11.3272 2.33944 11.1331C2.43731 10.9658 2.59288 10.84 2.77694 10.7792C2.961 10.7184 3.16091 10.7269 3.33915 10.8031L4.11077 11.1283C4.9325 10.9065 5.77488 10.7698 6.62459 10.7206C7.73137 10.6595 8.82415 10.4438 9.87121 10.08C12.3802 8.99296 13.9671 6.92561 15.2628 5.08149L15.3356 4.97472H16.1897L15.1366 7.1634C13.9477 9.65296 12.6616 12.0163 10.2352 13.5887C9.22044 14.1473 8.13015 14.5559 6.99827 14.8019C6.37224 14.9766 5.77533 15.1368 5.27062 15.3309L5.17356 15.36ZM3.61577 14.0691C4.11904 14.3637 4.6429 14.6216 5.18327 14.8408C5.66856 14.6563 6.25577 14.501 6.85753 14.3555C7.94139 14.1164 8.98672 13.7277 9.96341 13.2005C12.3122 11.696 13.5449 9.39575 14.6999 6.97414L15.0881 6.12487C13.8555 7.79914 12.3219 9.52193 10.0605 10.4925C8.96597 10.8786 7.82221 11.1073 6.66341 11.1719C5.81964 11.2223 4.98438 11.3688 4.17386 11.6087L4.08165 11.6427L3.11106 11.2399C3.04288 11.2097 2.96591 11.2058 2.89508 11.2291C2.82424 11.2525 2.76458 11.3012 2.72768 11.366C2.61606 11.5602 2.48503 11.7883 2.37341 11.9921C2.35197 12.0274 2.33829 12.0668 2.33327 12.1078C2.32825 12.1488 2.33201 12.1904 2.3443 12.2299C2.37052 12.309 2.42611 12.375 2.49959 12.4143L2.80533 12.5647C2.8482 12.5923 2.88323 12.6304 2.90704 12.6755C2.93084 12.7205 2.94261 12.771 2.94121 12.8219C2.94204 13.0693 3.00406 13.3127 3.12176 13.5303C3.23946 13.7479 3.40917 13.933 3.61577 14.0691Z" fill="#838383"/>
<path d="M20.3682 6.2753L19.8052 5.86765C19.5792 5.69205 19.3292 5.54985 19.0627 5.44545L17.8689 4.96015H19.9411L20.0042 5.11059C20.0721 5.26817 20.1289 5.43034 20.174 5.59589L20.3682 6.2753Z" fill="#838383"/>
<path d="M9.16753 19.5141C7.47929 19.5076 5.80652 19.1918 4.23209 18.5824C3.95714 18.4535 3.7156 18.263 3.52622 18.0257C3.33685 17.7884 3.20475 17.5105 3.14018 17.2138L2.95577 17.1459C2.85176 17.1167 2.75494 17.0663 2.67141 16.9978C2.58788 16.9293 2.51946 16.8442 2.47048 16.748C2.42498 16.6532 2.39896 16.5502 2.39396 16.4452C2.38895 16.3401 2.40507 16.2352 2.44136 16.1365C2.52386 15.9133 2.62092 15.6512 2.70342 15.4377C2.76855 15.2583 2.89785 15.1094 3.06636 15.0197C3.23486 14.9301 3.4306 14.9061 3.61577 14.9524L4.44562 15.1562C4.65464 15.0475 4.8702 14.9519 5.09106 14.8699L5.26577 15.326C5.03544 15.4059 4.8129 15.5066 4.60092 15.6269L4.51356 15.6755L3.4993 15.428C3.42991 15.4123 3.35723 15.4218 3.29415 15.4547C3.23107 15.4875 3.18168 15.5417 3.15474 15.6075C3.07224 15.8259 2.98003 16.0928 2.89753 16.3063C2.88191 16.3423 2.87384 16.3812 2.87384 16.4204C2.87384 16.4596 2.88191 16.4984 2.89753 16.5344C2.91439 16.5704 2.93867 16.6024 2.96878 16.6284C2.99889 16.6543 3.03415 16.6736 3.07224 16.6849L3.40709 16.7916C3.45436 16.8106 3.49581 16.8417 3.52732 16.8817C3.55883 16.9217 3.57929 16.9693 3.58665 17.0197C3.62371 17.2592 3.71807 17.4862 3.86171 17.6814C4.00535 17.8766 4.19401 18.0342 4.41165 18.1408C6.33571 18.8756 8.40264 19.1595 10.4536 18.9706C10.9411 18.4524 11.4614 17.9661 12.0114 17.5147C12.887 16.8336 13.6629 16.0332 14.3165 15.1368C14.4729 14.8843 14.6155 14.6234 14.7436 14.3555L15.1803 14.5738C15.0299 14.8747 14.8843 15.1465 14.729 15.394C14.0435 16.3343 13.2263 17.1711 12.3025 17.8787C11.747 18.3254 11.2248 18.812 10.7399 19.3346L10.6768 19.4074H10.5846C10.1147 19.4703 9.64155 19.5059 9.16753 19.5141Z" fill="#838383"/>
<path d="M5.26092 15.3309L5.09106 14.8747C5.61518 14.6757 6.2218 14.5107 6.85754 14.336C7.9414 14.097 8.98672 13.7083 9.96342 13.181C12.3122 11.6766 13.5449 9.37634 14.6999 6.95472L15.6705 4.95045H16.413V7.46428C16.413 9.89075 16.3208 12.2784 15.1997 14.5593L14.763 14.3409C15.8403 12.1571 15.9277 9.84222 15.9277 7.46428V5.5231L15.1367 7.1634C13.9477 9.65296 12.6617 12.0163 10.2352 13.5887C9.22044 14.1473 8.13015 14.5559 6.99827 14.8019C6.35283 14.9766 5.76562 15.1368 5.26092 15.3309Z" fill="#838383"/>
<path d="M11.4629 22.4647C11.1596 22.4662 10.8599 22.3979 10.5872 22.2649C10.3146 22.1319 10.0762 21.9379 9.89059 21.6979L9.62853 21.7319C9.53092 21.7468 9.43129 21.7411 9.33602 21.7152C9.24074 21.6892 9.15194 21.6437 9.07529 21.5815C8.9995 21.5228 8.93605 21.4497 8.88858 21.3664C8.84111 21.2831 8.81056 21.1913 8.79868 21.0962C8.77441 20.8196 8.74529 20.5138 8.72588 20.2663C8.70395 20.0822 8.7522 19.8965 8.86102 19.7463C8.96984 19.5961 9.13125 19.4924 9.31309 19.4559L10.1866 19.2763C10.2497 19.189 10.3176 19.1065 10.3953 19.0143L10.7641 19.3297C10.6789 19.4268 10.5995 19.5289 10.5263 19.6354L10.4681 19.7131L9.41015 19.9412C9.34973 19.953 9.29587 19.9868 9.25908 20.0362C9.22229 20.0855 9.20521 20.1468 9.21118 20.2081C9.21118 20.4556 9.25971 20.7565 9.28397 21.0137C9.28481 21.05 9.29348 21.0857 9.30939 21.1184C9.32531 21.1511 9.34809 21.1799 9.37618 21.2029C9.43065 21.2429 9.49846 21.2603 9.56544 21.2515L9.95853 21.1981C10.0097 21.191 10.0617 21.1998 10.1077 21.2232C10.1537 21.2466 10.1914 21.2836 10.2157 21.3291C10.354 21.5299 10.5388 21.6943 10.7542 21.8083C10.9697 21.9224 11.2095 21.9828 11.4532 21.9843C11.5115 21.9843 18.3687 21.596 20.5913 16.2481C21.6153 13.7925 21.3969 9.77427 21.3969 9.75C21.3969 8.04177 20.8049 6.62956 19.8003 5.86765L20.0963 5.47942C21.2222 6.34324 21.8725 7.90589 21.8774 9.74515C21.8774 9.90044 22.1006 13.9041 21.0378 16.4616C18.6987 22.0668 11.5406 22.4647 11.4678 22.4647H11.4629Z" fill="#838383"/>
<path d="M19.8051 5.86767C19.5911 5.70176 19.3561 5.5647 19.1063 5.46002H16.8643V4.97472H19.2373C19.5479 5.09249 19.839 5.25607 20.1012 5.46002L19.8051 5.86767Z" fill="#838383"/>
<path d="M10.7641 19.3394L10.3953 19.0288C10.8951 18.4842 11.4353 17.9781 12.0113 17.5147C12.8869 16.8336 13.6629 16.0332 14.3164 15.1368C14.4728 14.8843 14.6154 14.6234 14.7435 14.3555L15.1803 14.5738C15.0298 14.8747 14.8842 15.1465 14.7289 15.394C14.0435 16.3343 13.2263 17.1711 12.3025 17.8787C11.7552 18.3279 11.241 18.8161 10.7641 19.3394Z" fill="#838383"/>
<path d="M15.1804 14.5593L14.7437 14.3409C15.821 12.1571 15.9084 9.84222 15.9084 7.46428V4.95045H16.8789V5.43575H16.3937V7.46428C16.3937 9.90046 16.3014 12.2784 15.1804 14.5593Z" fill="#838383"/>
<path d="M20.2517 5.43575H19.7955V4.95045H20.2517C20.3289 4.95045 20.403 4.91978 20.4576 4.86517C20.5122 4.81056 20.5429 4.7365 20.5429 4.65928V2.77634C20.5429 2.69911 20.5122 2.62505 20.4576 2.57044C20.403 2.51584 20.3289 2.48516 20.2517 2.48516H15.3357C15.2585 2.48516 15.1844 2.51584 15.1298 2.57044C15.0752 2.62505 15.0445 2.69911 15.0445 2.77634V4.65928C15.0445 4.7365 15.0752 4.81056 15.1298 4.86517C15.1844 4.91978 15.2585 4.95045 15.3357 4.95045H15.4619V5.43575H15.3357C15.1298 5.43575 14.9323 5.35394 14.7866 5.20832C14.641 5.06271 14.5592 4.86521 14.5592 4.65928V2.77634C14.5573 2.67315 14.5759 2.57061 14.6141 2.47472C14.6522 2.37883 14.7091 2.2915 14.7814 2.21785C14.8537 2.1442 14.94 2.0857 15.0351 2.04577C15.1303 2.00584 15.2325 1.98529 15.3357 1.98531H20.2517C20.4577 1.98531 20.6551 2.06711 20.8008 2.21273C20.9464 2.35835 21.0282 2.55584 21.0282 2.76178V4.65928C21.0282 4.86521 20.9464 5.06271 20.8008 5.20832C20.6551 5.35394 20.4577 5.43575 20.2517 5.43575Z" fill="#838383"/>
<path d="M19.7956 4.95045H19.1501V5.43575H19.7956V4.95045Z" fill="#838383"/>
<path d="M15.8065 4.95045H15.4619V5.43575H15.8065V4.95045Z" fill="#838383"/>
<path d="M16.151 4.95045H15.8064V5.43575H16.151V4.95045Z" fill="#838383"/>
<path d="M19.15 4.95045H16.8643V5.43575H19.15V4.95045Z" fill="#838383"/>
<path d="M16.8642 5.43575H15.9082V5.09119H16.1508V4.95045H16.8642V5.43575Z" fill="#838383"/>
</svg>
