<svg width="23" height="23" viewBox="0 0 23 23" fill="none" xmlns="http://www.w3.org/2000/svg">
<path d="M6.79678 7.32558L9.98988 2.69273C10.1017 2.52798 10.144 2.32573 10.1075 2.12998C10.071 1.93422 9.95874 1.76078 9.79506 1.64737L8.97778 1.08668C8.89668 1.03045 8.8053 0.990761 8.70885 0.96988C8.6124 0.948999 8.51278 0.947338 8.41569 0.964991C8.3186 0.982643 8.22594 1.01926 8.14302 1.07276C8.06009 1.12625 7.98853 1.19557 7.93242 1.27675L4.97215 5.55322L4.64904 6.02838L3.9743 6.97871C3.94189 7.02338 3.92245 7.07615 3.91815 7.13118C3.91384 7.18621 3.92484 7.24135 3.94992 7.29053C3.97499 7.3397 4.01318 7.38098 4.06025 7.4098C4.10732 7.43863 4.16144 7.45388 4.21664 7.45387H6.54969C6.59819 7.4541 6.64601 7.44255 6.68906 7.4202C6.7321 7.39785 6.76906 7.36538 6.79678 7.32558V7.32558Z" stroke="white" stroke-width="0.584451" stroke-miterlimit="10"/>
<path d="M19.3648 6.9834L18.6948 6.03308L18.367 5.55791L15.4257 1.27669C15.3115 1.11242 15.1368 1.00017 14.9399 0.964536C14.7431 0.928905 14.5401 0.97281 14.3756 1.08662L13.525 1.64731C13.4439 1.70343 13.3745 1.77499 13.321 1.85792C13.2676 1.94084 13.2309 2.0335 13.2133 2.13059C13.1956 2.22768 13.1973 2.3273 13.2182 2.42375C13.2391 2.52019 13.2787 2.61158 13.335 2.69267L16.5281 7.32552C16.5544 7.36555 16.5904 7.39829 16.6328 7.42071C16.6752 7.44314 16.7225 7.45452 16.7704 7.45382H19.1035C19.1595 7.45681 19.2152 7.444 19.2643 7.41685C19.3134 7.3897 19.3539 7.34931 19.3811 7.30027C19.4084 7.25123 19.4213 7.19552 19.4184 7.1395C19.4155 7.08347 19.3969 7.02938 19.3648 6.9834V6.9834Z" stroke="white" stroke-width="0.584451" stroke-miterlimit="10"/>
<path d="M21.9924 9.91046H1.25625C1.10625 9.90674 0.963644 9.84453 0.858884 9.7371C0.754125 9.62968 0.695511 9.48556 0.695557 9.33551V9.44955C0.695917 9.58603 0.734939 9.71961 0.808103 9.83483C0.881267 9.95004 0.985578 10.0422 1.10895 10.1005C1.10658 10.1322 1.10658 10.1639 1.10895 10.1956L2.97159 20.9818C3.02249 21.2125 3.15249 21.4181 3.33907 21.563C3.52566 21.708 3.75706 21.7831 3.99319 21.7753H19.2269C19.4635 21.7849 19.6959 21.7106 19.8828 21.5653C20.0698 21.4201 20.1994 21.2134 20.2485 20.9818L22.1112 10.1956C22.1134 10.1703 22.1134 10.1448 22.1112 10.1195C22.2421 10.0631 22.3537 9.96956 22.4322 9.85053C22.5107 9.7315 22.5527 9.59213 22.5531 9.44955V9.33551C22.5531 9.48556 22.4945 9.62968 22.3898 9.7371C22.285 9.84453 22.1424 9.90674 21.9924 9.91046V9.91046ZM6.78716 19.0336L6.42603 19.0669C6.29575 19.076 6.16499 19.0582 6.0419 19.0145C5.91881 18.9709 5.80603 18.9024 5.71062 18.8132C5.6152 18.724 5.53919 18.6161 5.48733 18.4963C5.43546 18.3764 5.40886 18.2471 5.40918 18.1165L5.01955 13.1986C4.98831 12.9377 5.06025 12.6749 5.22004 12.4663C5.37982 12.2577 5.6148 12.1198 5.87484 12.082L6.23121 12.0439C6.36149 12.0348 6.49226 12.0526 6.61535 12.0963C6.73844 12.1399 6.85121 12.2085 6.94663 12.2976C7.04204 12.3868 7.11806 12.4947 7.16992 12.6145C7.22178 12.7344 7.24839 12.8637 7.24806 12.9943L7.6472 17.9217C7.6759 18.1816 7.60287 18.4426 7.44343 18.6499C7.28399 18.8571 7.0505 18.9947 6.79191 19.0336H6.78716ZM12.6174 18.0833C12.6149 18.3446 12.509 18.5942 12.3229 18.7777C12.1368 18.9611 11.8856 19.0634 11.6243 19.0621H11.3582C11.2291 19.0621 11.1012 19.0367 10.9818 18.9872C10.8625 18.9378 10.7541 18.8654 10.6627 18.774C10.5714 18.6827 10.4989 18.5743 10.4495 18.4549C10.4001 18.3356 10.3746 18.2077 10.3746 18.0785V13.0323C10.3746 12.9031 10.4001 12.7752 10.4495 12.6559C10.4989 12.5365 10.5714 12.4281 10.6627 12.3368C10.7541 12.2454 10.8625 12.173 10.9818 12.1236C11.1012 12.0741 11.2291 12.0487 11.3582 12.0487H11.6243C11.8856 12.0487 12.1363 12.1522 12.3215 12.3365C12.5067 12.5208 12.6114 12.771 12.6127 13.0323L12.6174 18.0833ZM17.5876 18.1355C17.5879 18.2661 17.5613 18.3954 17.5095 18.5153C17.4576 18.6351 17.3816 18.743 17.2862 18.8322C17.1908 18.9214 17.078 18.9899 16.9549 19.0336C16.8318 19.0772 16.7011 19.095 16.5708 19.0859L16.2097 19.0526C15.9501 19.0126 15.7163 18.8732 15.5575 18.664C15.3988 18.4547 15.3277 18.192 15.3591 17.9312L15.7535 13.0038C15.7565 12.8742 15.7854 12.7465 15.8384 12.6282C15.8914 12.5099 15.9675 12.4034 16.0622 12.3149C16.1569 12.2264 16.2683 12.1577 16.3899 12.1128C16.5115 12.0679 16.6409 12.0477 16.7703 12.0534L17.1315 12.0915C17.3912 12.1292 17.6257 12.2673 17.7848 12.4761C17.9438 12.6849 18.0146 12.9477 17.982 13.2081L17.5876 18.1355Z" stroke="white" stroke-width="0.584451" stroke-miterlimit="10"/>
<path d="M1.4083 7.4538H1.25625C1.10625 7.45752 0.963644 7.51973 0.858884 7.62715C0.754125 7.73458 0.695511 7.8787 0.695557 8.02874V8.1808C0.69552 7.99043 0.770155 7.80764 0.903426 7.67171C1.0367 7.53577 1.21797 7.45753 1.4083 7.4538V7.4538Z" stroke="white" stroke-width="0.584451" stroke-miterlimit="10"/>
<path d="M21.9924 7.4538H21.8403C22.0307 7.45753 22.2119 7.53577 22.3452 7.67171C22.4785 7.80764 22.5531 7.99043 22.5531 8.1808V8.02874C22.5531 7.8787 22.4945 7.73458 22.3897 7.62715C22.285 7.51973 22.1424 7.45752 21.9924 7.4538V7.4538Z" stroke="white" stroke-width="0.584451" stroke-miterlimit="10"/>
<path d="M21.8403 7.4538H1.4083C1.21797 7.45753 1.0367 7.53577 0.903426 7.67171C0.770155 7.80764 0.69552 7.99043 0.695557 8.1808V9.33544C0.695557 9.48793 0.756131 9.63417 0.863955 9.74199C0.971779 9.84982 1.11802 9.91039 1.2705 9.91039H21.9924C22.1424 9.90667 22.285 9.84446 22.3898 9.73704C22.4945 9.62961 22.5531 9.48549 22.5531 9.33544V8.1808C22.5531 7.99043 22.4785 7.80764 22.3452 7.67171C22.2119 7.53577 22.0307 7.45753 21.8403 7.4538V7.4538Z" stroke="white" stroke-width="0.584451" stroke-miterlimit="10"/>
<path d="M6.23127 12.0439L5.87489 12.0819C5.61485 12.1197 5.37988 12.2576 5.22009 12.4662C5.0603 12.6748 4.98836 12.9376 5.0196 13.1985L5.41399 18.1307C5.41366 18.2613 5.44027 18.3906 5.49213 18.5105C5.54399 18.6303 5.62001 18.7382 5.71542 18.8274C5.81084 18.9166 5.92361 18.9851 6.0467 19.0288C6.16979 19.0724 6.30056 19.0902 6.43084 19.0811L6.79196 19.0478C7.05239 19.0089 7.28739 18.87 7.44709 18.6606C7.60678 18.4512 7.67858 18.1879 7.64726 17.9264L7.24812 12.999C7.24909 12.868 7.22298 12.7382 7.1714 12.6178C7.11983 12.4973 7.04392 12.3889 6.94843 12.2992C6.85294 12.2095 6.73994 12.1405 6.61653 12.0966C6.49311 12.0527 6.36195 12.0347 6.23127 12.0439V12.0439Z" stroke="white" stroke-width="0.584451" stroke-miterlimit="10"/>
<path d="M17.1363 12.0819L16.7752 12.0439C16.6457 12.0382 16.5164 12.0584 16.3948 12.1033C16.2732 12.1482 16.1618 12.2169 16.0671 12.3054C15.9724 12.3939 15.8963 12.5004 15.8433 12.6187C15.7903 12.737 15.7614 12.8647 15.7584 12.9942L15.364 17.9122C15.3325 18.1729 15.4037 18.4357 15.5624 18.6449C15.7211 18.8542 15.9549 18.9935 16.2145 19.0336L16.5756 19.0668C16.7059 19.076 16.8367 19.0582 16.9598 19.0145C17.0829 18.9709 17.1956 18.9023 17.291 18.8132C17.3865 18.724 17.4625 18.6161 17.5143 18.4962C17.5662 18.3764 17.5928 18.2471 17.5925 18.1165L17.9869 13.1843C18.0155 12.9262 17.9428 12.667 17.7842 12.4614C17.6255 12.2558 17.3933 12.1197 17.1363 12.0819V12.0819Z" stroke="white" stroke-width="0.584451" stroke-miterlimit="10"/>
<path d="M11.6385 12.0486H11.3676C10.8244 12.0486 10.384 12.489 10.384 13.0322V18.0785C10.384 18.6217 10.8244 19.0621 11.3676 19.0621H11.6385C12.1817 19.0621 12.6221 18.6217 12.6221 18.0785V13.0322C12.6221 12.489 12.1817 12.0486 11.6385 12.0486Z" stroke="white" stroke-width="0.584451" stroke-miterlimit="10"/>
</svg>
