<svg width="26" height="26" viewBox="0 0 26 26" fill="none" xmlns="http://www.w3.org/2000/svg">
<path d="M11.2477 10.7718H11.0836C10.8209 10.7606 10.5632 10.6965 10.3259 10.5833C10.0886 10.4701 9.87657 10.3101 9.70254 10.1131C9.52852 9.91598 9.39607 9.6858 9.31313 9.4363C9.23019 9.18681 9.19846 8.92314 9.21986 8.6611C9.24125 8.39905 9.31532 8.14402 9.43762 7.91128C9.55993 7.67854 9.72796 7.47288 9.93164 7.30663C10.1353 7.14038 10.3705 7.01696 10.623 6.94376C10.8755 6.87055 11.1402 6.84908 11.4012 6.88061C11.6565 6.90017 11.9054 6.97013 12.1335 7.08644C12.3615 7.20276 12.5643 7.36312 12.7301 7.55826C13.0628 7.95402 13.2261 8.46503 13.1845 8.98041C13.1428 9.4958 12.8997 9.97398 12.5077 10.3112C12.1552 10.6087 11.7089 10.7718 11.2477 10.7718ZM11.2477 7.39414C11.0158 7.38922 10.7863 7.44101 10.5789 7.54501C10.3716 7.64901 10.1929 7.80206 10.0582 7.99088C9.92346 8.17969 9.83692 8.39854 9.80605 8.62841C9.77518 8.85828 9.80093 9.09221 9.88104 9.30987C9.96116 9.52753 10.0932 9.72232 10.2658 9.87733C10.4383 10.0323 10.6461 10.1428 10.871 10.1993C11.096 10.2557 11.3313 10.2563 11.5566 10.2011C11.7819 10.1459 11.9902 10.0365 12.1636 9.88238C12.378 9.70008 12.5335 9.45836 12.6106 9.18774C12.6877 8.91711 12.6829 8.6297 12.5968 8.36179C12.5108 8.09389 12.3472 7.85749 12.1269 7.68244C11.9066 7.5074 11.6393 7.40155 11.3589 7.37826L11.2477 7.39414Z" fill="#283483"/>
<path d="M17.2723 19.4118H17.1135C16.7284 19.3805 16.3613 19.2357 16.0585 18.9957C15.7557 18.7557 15.5308 18.4313 15.4124 18.0635C15.294 17.6957 15.2872 17.3011 15.3931 16.9295C15.4989 16.5579 15.7126 16.2261 16.0071 15.9759C16.2023 15.8092 16.4288 15.6831 16.6733 15.6049C16.9178 15.5268 17.1755 15.4981 17.4312 15.5206C17.926 15.5713 18.3828 15.8088 18.7085 16.1847C19.0342 16.5606 19.2042 17.0466 19.184 17.5435C19.1637 18.0405 18.9547 18.511 18.5995 18.8591C18.2442 19.2073 17.7696 19.4068 17.2723 19.4171V19.4118ZM17.1559 18.8824C17.5252 18.9001 17.887 18.7734 18.1646 18.5292C18.4423 18.285 18.6141 17.9424 18.6436 17.5738C18.6732 17.2052 18.5582 16.8395 18.3231 16.5542C18.0879 16.2688 17.751 16.0861 17.3835 16.0447C17.1936 16.0247 17.0016 16.044 16.8194 16.1014C16.6373 16.1588 16.4689 16.253 16.3247 16.3783C16.1103 16.5606 15.9548 16.8023 15.8777 17.0729C15.8006 17.3435 15.8053 17.6309 15.8914 17.8988C15.9775 18.1668 16.1411 18.4031 16.3614 18.5782C16.5817 18.7532 16.849 18.8591 17.1294 18.8824H17.1559Z" fill="#283483"/>
<path d="M11.1153 15.9283C10.8887 15.9303 10.6622 15.9161 10.4376 15.8859C10.2735 15.8859 10.1041 15.833 9.9347 15.7959C9.04062 15.5945 8.21414 15.1644 7.53614 14.5477C6.85814 13.931 6.35185 13.1489 6.06679 12.2779C5.78173 11.4069 5.72768 10.4767 5.90992 9.57855C6.09216 8.68035 6.50445 7.84485 7.10646 7.1538C7.70846 6.46275 8.47955 5.93981 9.34428 5.63616C10.209 5.33251 11.1378 5.25854 12.0396 5.4215C12.9415 5.58446 13.7857 5.97876 14.4895 6.56582C15.1933 7.15289 15.7326 7.9126 16.0547 8.77062L15.5623 8.95592C15.2675 8.18762 14.7787 7.50878 14.1436 6.98552C13.5084 6.46226 12.7486 6.11242 11.9381 5.97009C11.1275 5.82775 10.294 5.89777 9.51852 6.17332C8.7431 6.44887 8.05226 6.92055 7.5133 7.54243C6.97434 8.16431 6.60563 8.91518 6.44309 9.72189C6.28055 10.5286 6.32972 11.3637 6.58582 12.1457C6.84191 12.9278 7.29619 13.6302 7.90441 14.1845C8.51263 14.7389 9.25406 15.1262 10.0565 15.3089C10.2047 15.3406 10.3582 15.3671 10.5065 15.3883C10.7538 15.422 11.0035 15.4344 11.2529 15.4253C11.848 14.5743 12.6801 13.917 13.6459 13.5353L13.8418 14.0277C12.9337 14.3858 12.1575 15.0141 11.6182 15.8277L11.5441 15.9389H11.4118L11.1153 15.9283Z" fill="#283483"/>
<path d="M6.46712 23.8959C5.67294 23.8943 4.88929 23.714 4.17424 23.3684C3.45919 23.0228 2.83105 22.5208 2.33635 21.8995C1.84165 21.2782 1.49308 20.5536 1.31644 19.7793C1.1398 19.005 1.13964 18.2009 1.31595 17.4265C1.61562 16.1524 2.37661 15.0345 3.45206 14.2886C4.52751 13.5426 5.84116 13.2214 7.13948 13.3871H7.25065L7.31948 13.4771C7.99085 14.3767 8.95829 15.0104 10.0512 15.2665C10.1995 15.2983 10.353 15.3247 10.5012 15.3459C10.7926 15.3832 11.0868 15.3938 11.3801 15.3777L11.9095 15.3512L11.6183 15.7853C11.4636 16.0243 11.329 16.2758 11.2159 16.5371C11.1065 16.7901 11.0197 17.0523 10.9565 17.3206C10.7075 18.3796 10.8309 19.492 11.3059 20.4706L11.3589 20.5765L11.3112 20.6877C10.9085 21.6393 10.2342 22.4512 9.37267 23.0218C8.51112 23.5924 7.5005 23.8964 6.46712 23.8959ZM6.44065 13.8741C5.58273 13.8715 4.74 14.1006 4.00145 14.5371C3.2629 14.9737 2.65592 15.6015 2.24459 16.3544C1.83327 17.1073 1.63286 17.9573 1.66452 18.8147C1.69619 19.672 1.95875 20.5049 2.42449 21.2254C2.89023 21.9459 3.54187 22.5273 4.31062 22.9082C5.07936 23.2891 5.93668 23.4554 6.79208 23.3894C7.64747 23.3235 8.4692 23.0279 9.17051 22.5337C9.87182 22.0395 10.4267 21.3651 10.7765 20.5818C10.4737 19.9182 10.313 19.1986 10.3048 18.4692C10.2966 17.7398 10.4411 17.0167 10.7289 16.3465C10.7924 16.2036 10.8559 16.0659 10.9301 15.9283C10.7659 15.9283 10.6018 15.9283 10.4377 15.8859C10.2736 15.8436 10.1042 15.833 9.93477 15.7959C8.75799 15.5239 7.71096 14.8545 6.97006 13.9006C6.79427 13.8814 6.61749 13.8725 6.44065 13.8741Z" fill="#283483"/>
<path d="M15.5837 23.6841C15.1826 23.6851 14.7828 23.6389 14.3925 23.5465C13.027 23.2267 11.8441 22.3781 11.1037 21.187C10.3632 19.9959 10.1256 18.5596 10.4431 17.1936C10.5126 16.8963 10.6083 16.6058 10.729 16.3253C10.8526 16.0331 11.0032 15.7531 11.179 15.4889C11.7771 14.585 12.6382 13.8865 13.646 13.4877L13.8419 13.98C12.9339 14.3381 12.1577 14.9664 11.6184 15.78C11.4636 16.019 11.329 16.2705 11.216 16.5318C11.1066 16.7848 11.0198 17.047 10.9566 17.3153C10.774 18.0696 10.7785 18.857 10.9695 19.6091C11.1605 20.3613 11.5323 21.0554 12.0527 21.6311C12.573 22.2068 13.2261 22.6467 13.9551 22.9126C14.6842 23.1785 15.4671 23.2623 16.2359 23.1567C17.0047 23.0511 17.7361 22.7593 18.3665 22.3067C18.9968 21.8541 19.5071 21.2544 19.853 20.5597C20.1988 19.865 20.3697 19.0964 20.3509 18.3206C20.332 17.5448 20.124 16.7854 19.7449 16.1083L20.2054 15.8541C20.6393 16.6579 20.8579 17.5602 20.8398 18.4733C20.8218 19.3865 20.5679 20.2795 20.1027 21.0655C19.6375 21.8515 18.9769 22.5038 18.185 22.9589C17.3931 23.4141 16.497 23.6566 15.5837 23.663V23.6841Z" fill="#283483"/>
<path d="M20.4117 11.333L19.9246 11.1318C20.8829 8.77062 21.3488 6.1765 21.1688 5.64709C20.491 6.13019 19.7838 6.57046 19.0511 6.96532C18.0031 7.49714 17.025 8.15688 16.1394 8.92944C16.2875 9.35857 16.3782 9.80537 16.4094 10.2583L15.8799 10.2953C15.8432 9.83511 15.7416 9.38241 15.5782 8.95062L15.5146 8.79179L15.6364 8.67003C16.5844 7.80863 17.6439 7.07856 18.7864 6.49944C19.5056 6.12041 20.1989 5.69418 20.8617 5.22356C20.943 5.14825 21.0474 5.10259 21.1578 5.09394C21.2683 5.08529 21.3785 5.11417 21.4705 5.17591C22.2064 5.74238 21.1846 9.42709 20.4117 11.333Z" fill="#283483"/>
<path d="M13.8789 13.9906L13.646 13.5089L13.6989 13.4877L13.9107 13.9747L13.8789 13.9906Z" fill="#283483"/>
<path d="M20.1313 16.9236L20.0202 16.7224C19.5645 15.8659 18.9542 15.1013 18.2202 14.4671C17.7382 14.1419 17.1995 13.9102 16.6319 13.7841C16.1966 13.6837 15.7493 13.6445 15.3031 13.6677L14.7737 13.6994L15.0649 13.26C15.3736 12.7929 15.5977 12.275 15.7266 11.73C15.8321 11.2614 15.8696 10.78 15.8378 10.3006L16.3672 10.2636C16.4092 10.7961 16.3681 11.3319 16.2454 11.8518C16.1433 12.3027 15.9794 12.7374 15.7584 13.1436C16.6558 13.167 17.5309 13.4283 18.2943 13.9006C18.5311 13.6129 18.7521 13.3125 18.956 13.0006C19.3273 12.4082 19.6428 11.7826 19.8984 11.1318V11.063L19.9566 11.0206C21.2618 10.1318 22.7984 9.64415 24.3772 9.61768H24.6472L24.6843 9.84003C24.6843 9.89297 25.4202 14.9541 20.3378 16.8441L20.1313 16.9236ZM18.7496 14.2024C19.3879 14.8074 19.9338 15.5031 20.3696 16.2671C21.5928 15.8136 22.6314 14.9675 23.323 13.8612C24.0145 12.755 24.3201 11.4507 24.1919 10.1524C22.8333 10.2292 21.5188 10.6619 20.3802 11.4071C20.1161 12.062 19.7955 12.6926 19.4219 13.2918C19.2162 13.6085 18.9917 13.9125 18.7496 14.2024Z" fill="#283483"/>
<path d="M18.22 14.4671C17.7381 14.1419 17.1993 13.9102 16.6317 13.7841C15.7212 13.5685 14.7666 13.635 13.8947 13.9747L13.7041 13.4824C14.6768 13.1102 15.7379 13.0346 16.7535 13.2653C17.375 13.4106 17.9651 13.6671 18.4953 14.0224L18.22 14.4671Z" fill="#283483"/>
<path d="M5.8372 19.1047H5.68367C5.3279 19.0753 4.98886 18.941 4.70939 18.7189C4.42992 18.4968 4.22257 18.1968 4.11357 17.8569C4.00456 17.5169 3.99878 17.1523 4.09697 16.8091C4.19515 16.4659 4.39289 16.1595 4.66518 15.9286C4.93747 15.6977 5.2721 15.5528 5.62675 15.5121C5.98141 15.4714 6.34018 15.5367 6.6577 15.6999C6.97522 15.863 7.23724 16.1166 7.41065 16.4287C7.58405 16.7407 7.66105 17.0972 7.63191 17.453C7.59476 17.9038 7.38972 18.3243 7.05737 18.6311C6.72501 18.938 6.28956 19.1089 5.8372 19.11V19.1047ZM5.8372 16.0236C5.51008 16.0273 5.1969 16.1566 4.96235 16.3846C4.72781 16.6127 4.58983 16.9221 4.57692 17.249C4.564 17.5759 4.67715 17.8952 4.89297 18.1411C5.10879 18.3869 5.41081 18.5405 5.73661 18.57C6.06554 18.583 6.38675 18.4683 6.63312 18.25C6.87948 18.0317 7.03192 17.7266 7.05857 17.3985C7.08523 17.0704 6.98405 16.7447 6.77616 16.4894C6.56828 16.2342 6.26979 16.0692 5.94308 16.0289L5.8372 16.0236Z" fill="#283483"/>
</svg>
