<svg width="25" height="24" viewBox="0 0 25 24" fill="none" xmlns="http://www.w3.org/2000/svg">
<g clip-path="url(#clip0_732_11098)">
<path d="M7.8999 20C7.8999 19.7238 8.12376 19.5 8.3999 19.5C8.67605 19.5 8.8999 19.7238 8.8999 20C8.8999 20.2762 8.67605 20.5 8.3999 20.5C8.12376 20.5 7.8999 20.2762 7.8999 20Z" fill="#1C1B1F" stroke="#A09CAB"/>
<path d="M14.8999 20C14.8999 19.7238 15.1237 19.5 15.3999 19.5C15.6761 19.5 15.8999 19.7238 15.8999 20C15.8999 20.2762 15.6761 20.5 15.3999 20.5C15.1237 20.5 14.8999 20.2762 14.8999 20Z" fill="#1C1B1F" stroke="#A09CAB"/>
<path d="M3.3999 3H6.3999L7.8999 15L18.3999 13L19.3999 6H6.8999M8.3999 21C7.84762 21 7.3999 20.5523 7.3999 20C7.3999 19.4477 7.84762 19 8.3999 19C8.95218 19 9.3999 19.4477 9.3999 20C9.3999 20.5523 8.95218 21 8.3999 21ZM15.3999 21C14.8476 21 14.3999 20.5523 14.3999 20C14.3999 19.4477 14.8476 19 15.3999 19C15.9522 19 16.3999 19.4477 16.3999 20C16.3999 20.5523 15.9522 21 15.3999 21Z" stroke="#A09CAB" stroke-width="2" stroke-linecap="round" stroke-linejoin="round"/>
</g>
<defs>
<clipPath id="clip0_732_11098">
<rect width="24" height="24" fill="white" transform="translate(0.399902)"/>
</clipPath>
</defs>
</svg>
