<svg width="18" height="18" viewBox="0 0 18 18" fill="none" xmlns="http://www.w3.org/2000/svg">
<mask id="path-1-inside-1_732_11088" fill="white">
<path d="M8.99999 1L9.61259 0.20958C9.25199 -0.06986 8.74799 -0.06986 8.38739 0.20958L8.99999 1ZM11.5 17H10.5C10.5 17.5523 10.9477 18 11.5 18V17ZM6.49999 17V18C7.05229 18 7.49999 17.5523 7.49999 17H6.49999ZM1.99999 15V8.18036H-1.09412e-05V15H1.99999ZM2.38742 7.3899L9.61259 1.79041L8.38739 0.20958L1.16227 5.80907L2.38742 7.3899ZM8.38739 1.79041L15.6126 7.3899L16.8377 5.80907L9.61259 0.20958L8.38739 1.79041ZM16 8.18036V15H18V8.18036H16ZM15 16H11.5V18H15V16ZM16 15C16 15.4997 15.9979 15.7739 15.9723 15.9641C15.9506 16.1255 15.9297 16.0704 16 16L17.4142 17.4143C17.7774 17.051 17.903 16.6138 17.9545 16.2306C18.0021 15.8761 18 15.4432 18 15H16ZM15 18C15.4431 18 15.8761 18.0022 16.2305 17.9545C16.6137 17.903 17.051 17.7775 17.4142 17.4143L16 16C16.0703 15.9297 16.1254 15.9506 15.964 15.9723C15.7738 15.9979 15.4997 16 15 16V18ZM15.6126 7.3899C15.8162 7.54774 15.9185 7.62808 15.9871 7.69149C16.0415 7.74184 16.0217 7.7345 16 7.69015L17.7959 6.8099C17.5678 6.34458 17.1406 6.04379 16.8377 5.80907L15.6126 7.3899ZM18 8.18036C18 7.79714 18.0239 7.27522 17.7959 6.8099L16 7.69015C15.9783 7.64581 15.9846 7.62569 15.991 7.69958C15.9991 7.79262 16 7.92265 16 8.18036H18ZM1.99999 8.18036C1.99999 7.92266 2.00086 7.79262 2.00897 7.69958C2.01541 7.62569 2.02173 7.64581 1.99999 7.69016L0.204119 6.8099C-0.023961 7.27522 -1.09412e-05 7.79714 -1.09412e-05 8.18036H1.99999ZM1.16227 5.80907C0.859399 6.0438 0.432199 6.34458 0.204119 6.8099L1.99999 7.69016C1.97826 7.7345 1.95848 7.74184 2.01294 7.69149C2.08151 7.62808 2.18376 7.54774 2.38742 7.3899L1.16227 5.80907ZM-1.09412e-05 15C-1.09412e-05 15.4432 -0.00213086 15.8761 0.0455191 16.2306C0.0970391 16.6138 0.222559 17.051 0.585779 17.4143L1.99999 16C2.07031 16.0704 2.04939 16.1255 2.02768 15.9641C2.00211 15.7739 1.99999 15.4997 1.99999 15H-1.09412e-05ZM2.99999 16C2.50032 16 2.22616 15.9979 2.03597 15.9723C1.87454 15.9506 1.92967 15.9297 1.99999 16L0.585779 17.4143C0.948989 17.7775 1.38627 17.903 1.76947 17.9545C2.12391 18.0022 2.55686 18 2.99999 18V16ZM8.99999 10.5C9.36039 10.5 9.75079 10.5944 10.0249 10.8C10.2506 10.9693 10.5 11.2856 10.5 12.0001L12.5 12C12.4999 10.7145 11.9992 9.78076 11.225 9.19996C10.4991 8.65566 9.63959 8.49996 8.99999 8.49996V10.5ZM10.5 12.0001V17H12.5V12L10.5 12.0001ZM8.99999 8.49996C8.36039 8.49996 7.50079 8.65566 6.77499 9.19996C6.0007 9.78076 5.49999 10.7145 5.49999 12H7.49999C7.49999 11.2856 7.74929 10.9693 7.97499 10.8C8.24919 10.5944 8.63959 10.5 8.99999 10.5V8.49996ZM5.49999 12V17H7.49999V12H5.49999ZM6.49999 16H2.99999V18H6.49999V16Z"/>
</mask>
<path d="M8.99999 1L9.61259 0.20958C9.25199 -0.06986 8.74799 -0.06986 8.38739 0.20958L8.99999 1ZM11.5 17H10.5C10.5 17.5523 10.9477 18 11.5 18V17ZM6.49999 17V18C7.05229 18 7.49999 17.5523 7.49999 17H6.49999ZM1.99999 15V8.18036H-1.09412e-05V15H1.99999ZM2.38742 7.3899L9.61259 1.79041L8.38739 0.20958L1.16227 5.80907L2.38742 7.3899ZM8.38739 1.79041L15.6126 7.3899L16.8377 5.80907L9.61259 0.20958L8.38739 1.79041ZM16 8.18036V15H18V8.18036H16ZM15 16H11.5V18H15V16ZM16 15C16 15.4997 15.9979 15.7739 15.9723 15.9641C15.9506 16.1255 15.9297 16.0704 16 16L17.4142 17.4143C17.7774 17.051 17.903 16.6138 17.9545 16.2306C18.0021 15.8761 18 15.4432 18 15H16ZM15 18C15.4431 18 15.8761 18.0022 16.2305 17.9545C16.6137 17.903 17.051 17.7775 17.4142 17.4143L16 16C16.0703 15.9297 16.1254 15.9506 15.964 15.9723C15.7738 15.9979 15.4997 16 15 16V18ZM15.6126 7.3899C15.8162 7.54774 15.9185 7.62808 15.9871 7.69149C16.0415 7.74184 16.0217 7.7345 16 7.69015L17.7959 6.8099C17.5678 6.34458 17.1406 6.04379 16.8377 5.80907L15.6126 7.3899ZM18 8.18036C18 7.79714 18.0239 7.27522 17.7959 6.8099L16 7.69015C15.9783 7.64581 15.9846 7.62569 15.991 7.69958C15.9991 7.79262 16 7.92265 16 8.18036H18ZM1.99999 8.18036C1.99999 7.92266 2.00086 7.79262 2.00897 7.69958C2.01541 7.62569 2.02173 7.64581 1.99999 7.69016L0.204119 6.8099C-0.023961 7.27522 -1.09412e-05 7.79714 -1.09412e-05 8.18036H1.99999ZM1.16227 5.80907C0.859399 6.0438 0.432199 6.34458 0.204119 6.8099L1.99999 7.69016C1.97826 7.7345 1.95848 7.74184 2.01294 7.69149C2.08151 7.62808 2.18376 7.54774 2.38742 7.3899L1.16227 5.80907ZM-1.09412e-05 15C-1.09412e-05 15.4432 -0.00213086 15.8761 0.0455191 16.2306C0.0970391 16.6138 0.222559 17.051 0.585779 17.4143L1.99999 16C2.07031 16.0704 2.04939 16.1255 2.02768 15.9641C2.00211 15.7739 1.99999 15.4997 1.99999 15H-1.09412e-05ZM2.99999 16C2.50032 16 2.22616 15.9979 2.03597 15.9723C1.87454 15.9506 1.92967 15.9297 1.99999 16L0.585779 17.4143C0.948989 17.7775 1.38627 17.903 1.76947 17.9545C2.12391 18.0022 2.55686 18 2.99999 18V16ZM8.99999 10.5C9.36039 10.5 9.75079 10.5944 10.0249 10.8C10.2506 10.9693 10.5 11.2856 10.5 12.0001L12.5 12C12.4999 10.7145 11.9992 9.78076 11.225 9.19996C10.4991 8.65566 9.63959 8.49996 8.99999 8.49996V10.5ZM10.5 12.0001V17H12.5V12L10.5 12.0001ZM8.99999 8.49996C8.36039 8.49996 7.50079 8.65566 6.77499 9.19996C6.0007 9.78076 5.49999 10.7145 5.49999 12H7.49999C7.49999 11.2856 7.74929 10.9693 7.97499 10.8C8.24919 10.5944 8.63959 10.5 8.99999 10.5V8.49996ZM5.49999 12V17H7.49999V12H5.49999ZM6.49999 16H2.99999V18H6.49999V16Z" fill="#1C1B1F"/>
<path d="M15.6126 7.3899L15.2174 7.08364L16.0078 7.69618L15.6126 7.3899ZM16 7.69015L15.7799 7.24118L16.22 8.13912L16 7.69015ZM12.5 12L12.5 12.5L12.5 11.5V12ZM2.17006 6.2932L1.55748 5.50278L0.767063 6.11536L1.37964 6.90578L2.17006 6.2932ZM15.8299 6.29323L15.2174 7.08364L16.0078 7.69616L16.6203 6.90575L15.8299 6.29323ZM16.6778 6.80106L15.7799 7.24118L16.2201 8.13912L17.118 7.699L16.6778 6.80106ZM11.5 12.5H12.5V11.5H11.5V12.5ZM1.99999 7.68036H-1.09412e-05V8.68036H1.99999V7.68036ZM-1.09412e-05 15.5H1.99999V14.5H-1.09412e-05V15.5ZM0.767062 6.11536L1.99221 7.69619L2.78263 7.08361L1.55748 5.50278L0.767062 6.11536ZM16.0078 7.69618L17.2329 6.11535L16.4425 5.50279L15.2174 7.08362L16.0078 7.69618ZM16 15.5H18V14.5H16V15.5ZM18 7.68036H16V8.68036H18V7.68036ZM15.5 18V16H14.5V18H15.5ZM15.6464 16.3535L17.0606 17.7678L17.7678 17.0607L16.3536 15.6464L15.6464 16.3535ZM16.22 8.13912L18.0159 7.25887L17.5758 6.36093L15.7799 7.24118L16.22 8.13912ZM2.22005 7.24119L0.424184 6.36093L-0.0159457 7.25887L1.77992 8.13913L2.22005 7.24119ZM0.939343 17.7678L2.35355 16.3535L1.64642 15.6464L0.232215 17.0607L0.939343 17.7678ZM3.49999 18V16H2.49999V18H3.49999ZM10.5 12.5001L12.5 12.5L12.5 11.5L10.5 11.5001L10.5 12.5001ZM8.49999 8.49996V10.5H9.49999V8.49996H8.49999ZM5.49999 12.5H7.49999V11.5H5.49999V12.5ZM1.16227 5.80907L0.549696 5.01866L0.549688 5.01866L1.16227 5.80907ZM8.99999 1L8.20959 1.61259L8.99999 2.63242L9.79039 1.61259L8.99999 1ZM9.61259 0.20958L10.2252 -0.580833L10.2251 -0.580862L9.61259 0.20958ZM8.38739 0.20958L7.77485 -0.580862L7.77482 -0.580834L8.38739 0.20958ZM15.6126 7.3899L16.2253 6.59958L16.2252 6.59948L15.6126 7.3899ZM11.5 17H12.5V16H11.5V17ZM16 7.69015L16.8982 7.25065L16.8982 7.25057L16 7.69015ZM12.5 12H13.5V11.9999L12.5 12ZM6.49999 17V16H5.49999V17H6.49999ZM2.38742 7.3899L1.77485 6.59948L1.77484 6.59949L2.38742 7.3899ZM9.61259 1.79041L10.2252 2.58083L11.0156 1.96824L10.403 1.17782L9.61259 1.79041ZM8.38739 1.79041L7.59699 1.17782L6.98438 1.96824L7.77482 2.58083L8.38739 1.79041ZM16.8377 5.80907L16.2251 6.59948L16.2252 6.59952L16.8377 5.80907ZM11.5 16V15H10.5V16H11.5ZM15.9723 15.9641L14.9812 15.8307L14.9812 15.8308L15.9723 15.9641ZM16 16L15.2929 15.2929L15.2924 15.2934L16 16ZM17.4142 17.4143L18.1213 18.1214L18.1214 18.1213L17.4142 17.4143ZM17.9545 16.2306L18.9456 16.3638L18.9456 16.3636L17.9545 16.2306ZM16.2305 17.9545L16.0973 16.9634L16.0971 16.9634L16.2305 17.9545ZM15.964 15.9723L15.8307 14.9812L15.8306 14.9812L15.964 15.9723ZM15.9871 7.69149L16.6663 6.95759L16.6659 6.95715L15.9871 7.69149ZM17.7959 6.8099L18.6939 6.3699L18.6938 6.36974L17.7959 6.8099ZM15.991 7.69958L14.9947 7.78587L14.9948 7.78631L15.991 7.69958ZM2.00897 7.69958L3.00519 7.78642L3.00519 7.78641L2.00897 7.69958ZM1.99999 7.69016L1.10207 7.25001L1.10203 7.25009L1.99999 7.69016ZM2.01294 7.69149L2.6918 8.42576L2.69188 8.42568L2.01294 7.69149ZM0.0455191 16.2306L-0.945568 16.3638L-0.945564 16.3638L0.0455191 16.2306ZM0.585779 17.4143L-0.121406 18.1213L-0.121318 18.1214L0.585779 17.4143ZM1.99999 16L2.7075 15.2933L2.707 15.2928L1.99999 16ZM2.02768 15.9641L1.03659 16.0973L1.0366 16.0974L2.02768 15.9641ZM2.03597 15.9723L2.16937 14.9812L2.16919 14.9812L2.03597 15.9723ZM1.76947 17.9545L1.90285 16.9634L1.90267 16.9634L1.76947 17.9545ZM10.0249 10.8L10.6249 10L10.6249 10L10.0249 10.8ZM11.225 9.19996L11.8251 8.40003L11.8249 8.39989L11.225 9.19996ZM12.5 17V18H13.5V17H12.5ZM6.77499 9.19996L6.17502 8.39993L6.17493 8.4L6.77499 9.19996ZM7.97499 10.8L7.37508 9.99989L7.37493 10L7.97499 10.8ZM5.49999 17H4.49999V18H5.49999V17ZM6.49999 16H7.49999V15H6.49999V16ZM9.79039 1.61259L10.403 0.822167L8.82219 -0.403007L8.20959 0.387413L9.79039 1.61259ZM10.2251 -0.580862C9.50396 -1.13971 8.49601 -1.13971 7.77485 -0.580862L8.99993 1.00002H9.00005L10.2251 -0.580862ZM7.59699 0.822167L8.20959 1.61259L9.79039 0.387413L9.17779 -0.403007L7.59699 0.822167ZM11.5 16H10.5V18H11.5V16ZM9.49999 17C9.49999 18.1045 10.3954 19 11.5 19V17H9.49999ZM12.5 18V17H10.5V18H12.5ZM5.49999 17V18H7.49999V17H5.49999ZM6.49999 19C7.60457 19 8.49999 18.1045 8.49999 17H6.49999V19ZM7.49999 16H6.49999V18H7.49999V16ZM2.99999 15V8.18036H0.999989V15H2.99999ZM-1.00001 8.18036V15H0.999989V8.18036H-1.00001ZM2.99999 8.18032L10.2252 2.58083L9.00002 0.999994L1.77485 6.59948L2.99999 8.18032ZM10.403 1.17782L9.17779 -0.40301L7.59699 0.82217L8.82219 2.403L10.403 1.17782ZM7.77482 -0.580834L0.549696 5.01866L1.77484 6.59948L8.99996 0.999994L7.77482 -0.580834ZM7.77482 2.58083L15 8.18032L16.2252 6.59948L8.99996 0.999993L7.77482 2.58083ZM17.4503 5.01866L10.2252 -0.580833L9.00002 0.999993L16.2251 6.59948L17.4503 5.01866ZM8.82219 -0.40301L7.59699 1.17782L9.17779 2.403L10.403 0.82217L8.82219 -0.40301ZM15 8.18036V15H17V8.18036H15ZM19 15V8.18036H17V15H19ZM15 15H11.5V17H15V15ZM10.5 16V18H12.5V16H10.5ZM11.5 19H15V17H11.5V19ZM15 15C15 15.5306 14.9957 15.7233 14.9812 15.8307L16.9634 16.0975C17.0001 15.8245 17 15.4688 17 15H15ZM14.9812 15.8308C14.9795 15.8432 14.9798 15.8368 14.9848 15.816C14.9873 15.8056 14.9912 15.7905 14.997 15.7714C14.9998 15.7623 15.0037 15.7501 15.0089 15.7356C15.0093 15.7343 15.0164 15.7138 15.0269 15.6883C15.0288 15.6837 15.0325 15.6749 15.0373 15.664C15.039 15.6601 15.0531 15.6279 15.0744 15.589C15.09 15.5615 15.148 15.474 15.1938 15.4165C15.4243 15.2194 16.4355 15.194 16.904 15.7644C16.9435 15.9422 16.9455 16.179 16.938 16.2334C16.9334 16.2587 16.9249 16.2986 16.9213 16.3133C16.915 16.3385 16.909 16.358 16.9072 16.3638C16.9045 16.3724 16.9022 16.3794 16.9008 16.3836C16.898 16.3921 16.8956 16.3989 16.8943 16.4027C16.8543 16.5157 16.7947 16.6194 16.7076 16.7066L15.2924 15.2934C15.135 15.451 15.0507 15.6174 15.009 15.7351C15.0076 15.739 15.0052 15.7459 15.0024 15.7544C15.001 15.7587 14.9987 15.7657 14.996 15.7744C14.9942 15.7802 14.9882 15.7996 14.9819 15.8249C14.9783 15.8395 14.9697 15.8794 14.9652 15.9047C14.9576 15.9592 14.9597 16.196 14.9991 16.3738C15.4676 16.9442 16.4788 16.9188 16.7093 16.7216C16.7552 16.6642 16.8132 16.5766 16.8288 16.5492C16.8501 16.5103 16.8642 16.478 16.8659 16.4742C16.8707 16.4632 16.8744 16.4544 16.8763 16.4497C16.8868 16.4242 16.8941 16.4032 16.8948 16.4013C16.9004 16.3854 16.9051 16.3709 16.9089 16.3584C16.9169 16.3325 16.924 16.3061 16.9304 16.2793C16.9431 16.2257 16.9542 16.1656 16.9634 16.0973L14.9812 15.8308ZM18.1214 18.1213C18.7016 17.5409 18.8793 16.8571 18.9456 16.3638L16.9634 16.0974C16.9267 16.3704 16.8531 16.5611 16.707 16.7072L18.1214 18.1213ZM18.9456 16.3636C19.0041 15.9276 19 15.4168 19 15H17C17 15.4695 17 15.8245 16.9634 16.0975L18.9456 16.3636ZM15 19C15.4164 19 15.9277 19.0042 16.3639 18.9455L16.0971 16.9634C15.8245 17.0001 15.4697 17 15 17V19ZM16.3637 18.9455C16.8568 18.8793 17.5408 18.7018 18.1213 18.1214L16.7071 16.7072C16.5611 16.8531 16.3706 16.9266 16.0973 16.9634L16.3637 18.9455ZM16.7071 16.7071C16.6195 16.7946 16.5159 16.854 16.4043 16.8937C16.4006 16.895 16.3941 16.8973 16.3859 16.9C16.3819 16.9014 16.3752 16.9036 16.3669 16.9062C16.3615 16.9079 16.3427 16.9137 16.3183 16.92C16.304 16.9236 16.2647 16.9322 16.2396 16.9369C16.1842 16.9449 15.9273 16.9415 15.7319 16.893C15.1562 16.36 15.2683 15.3526 15.4466 15.1689C15.4977 15.1308 15.5754 15.0819 15.6 15.0684C15.6354 15.0496 15.6645 15.037 15.6684 15.0353C15.6785 15.0309 15.6866 15.0276 15.691 15.0258C15.7151 15.0159 15.7344 15.0092 15.736 15.0086C15.7504 15.0036 15.7624 14.9997 15.7715 14.997C15.7905 14.9911 15.8056 14.9872 15.816 14.9847C15.8367 14.9798 15.8432 14.9795 15.8307 14.9812L16.0972 16.9633C16.1655 16.9542 16.2256 16.9431 16.2792 16.9304C16.306 16.924 16.3324 16.9169 16.3582 16.909C16.3707 16.9051 16.3851 16.9005 16.4007 16.895C16.403 16.8942 16.4227 16.8873 16.4469 16.8774C16.4514 16.8756 16.4595 16.8722 16.4696 16.8678C16.4735 16.8661 16.5026 16.8536 16.538 16.8347C16.5627 16.8212 16.6403 16.7723 16.6915 16.7342C16.8698 16.5506 16.9818 15.5432 16.4061 15.0101C16.2108 14.9617 15.9539 14.9582 15.8984 14.9662C15.8733 14.9709 15.834 14.9796 15.8197 14.9831C15.7953 14.9894 15.7765 14.9953 15.7711 14.997C15.7628 14.9996 15.7561 15.0018 15.752 15.0031C15.7438 15.0059 15.7372 15.0082 15.7335 15.0095C15.6171 15.051 15.4507 15.135 15.2929 15.2929L16.7071 16.7071ZM15.8306 14.9812C15.7232 14.9957 15.5306 15 15 15V17C15.4688 17 15.8244 17.0001 16.0974 16.9633L15.8306 14.9812ZM14.9999 8.18022C15.2187 8.34987 15.2793 8.39901 15.3083 8.42583L16.6659 6.95715C16.5577 6.85715 16.4137 6.74561 16.2253 6.59958L14.9999 8.18022ZM15.3078 8.42539C15.3082 8.42575 15.3026 8.42057 15.2927 8.41018C15.2876 8.40488 15.2815 8.3984 15.2747 8.39075C15.2712 8.38675 15.2681 8.38321 15.2657 8.38043C15.258 8.3716 15.2692 8.38463 15.2762 8.39246C15.278 8.39439 15.2848 8.40203 15.2937 8.41156C15.2989 8.41704 15.3132 8.4317 15.3224 8.44081C15.3414 8.45898 15.4246 8.52827 15.4923 8.5745C16.2514 8.69977 17.0203 7.7871 16.9318 7.31115C16.9046 7.25597 16.8621 7.18374 16.8498 7.16519C16.8337 7.14145 16.8197 7.12311 16.8192 7.12257C16.8128 7.11402 16.8074 7.10721 16.8073 7.10714C16.806 7.10543 16.8049 7.10409 16.8047 7.10388C16.8044 7.10342 16.8079 7.10787 16.8121 7.11321C16.816 7.11824 16.82 7.12357 16.8241 7.12918C16.8324 7.14033 16.8407 7.15216 16.849 7.16466C16.8653 7.18936 16.8822 7.21796 16.8982 7.25065L15.1017 8.12965C15.1286 8.18452 15.1562 8.23067 15.1806 8.26764C15.1929 8.28628 15.2047 8.30292 15.2154 8.3175C15.2208 8.32482 15.2259 8.33151 15.2306 8.33754C15.2355 8.34388 15.2396 8.34898 15.2394 8.34878C15.2393 8.34861 15.2382 8.34729 15.2369 8.34561C15.2369 8.34556 15.2315 8.33877 15.225 8.33022C15.2246 8.3297 15.2106 8.31136 15.1945 8.28762C15.1822 8.26907 15.1397 8.19684 15.1124 8.14166C15.024 7.66571 15.7928 6.75305 16.552 6.87831C16.6196 6.92455 16.7028 6.99383 16.7219 7.01201C16.731 7.02111 16.7453 7.03577 16.7505 7.04124C16.7595 7.05078 16.7663 7.05841 16.768 7.06034C16.775 7.06812 16.7861 7.08099 16.7782 7.07193C16.7754 7.06867 16.7716 7.06427 16.7669 7.05903C16.7578 7.04888 16.7481 7.03833 16.7376 7.02734C16.7167 7.00555 16.6932 6.98241 16.6663 6.95759L15.3078 8.42539ZM18.6938 6.36974C18.3416 5.65129 17.6892 5.20382 17.4502 5.01862L16.2252 6.59952C16.403 6.73731 16.5316 6.83111 16.6601 6.95181C16.7802 7.06465 16.8546 7.16158 16.898 7.25006L18.6938 6.36974ZM19 8.18036C19 7.87796 19.0459 7.08828 18.6939 6.3699L16.8979 7.24991C16.9413 7.33841 16.9723 7.45662 16.9879 7.62071C17.0047 7.79622 17 7.95541 17 8.18036H19ZM16.8982 7.25057C16.9141 7.2831 16.9262 7.31383 16.9356 7.34158C16.9404 7.35565 16.9446 7.36924 16.9482 7.38223C16.9522 7.39623 16.9554 7.40925 16.9545 7.40568C16.9542 7.40459 16.9534 7.40127 16.9523 7.39703C16.9521 7.39631 16.9482 7.38133 16.9427 7.36286C16.9424 7.36208 16.9309 7.32203 16.9115 7.27423C16.8953 7.23668 16.8199 7.10012 16.751 7.00773C16.2653 6.69054 15.2511 6.97113 15.0106 7.4251C14.9927 7.52639 14.9851 7.66717 14.9864 7.70532C14.9877 7.72495 14.9906 7.75635 14.9919 7.76813C14.9943 7.78898 14.997 7.80518 14.9977 7.80978C15.0011 7.83091 15.0063 7.85659 15.0034 7.84202C15.0031 7.8404 15.0024 7.83644 15.0015 7.83148C14.9997 7.82203 14.9984 7.81367 14.9973 7.80654C14.9953 7.79262 14.9947 7.78525 14.9947 7.78587L16.9873 7.61329C16.9841 7.57697 16.9803 7.5444 16.976 7.51486C16.9737 7.49992 16.9715 7.48614 16.9691 7.47339C16.9679 7.46678 16.967 7.4617 16.9665 7.45946C16.9636 7.44457 16.9688 7.47007 16.9722 7.49112C16.9729 7.49572 16.9755 7.51191 16.978 7.53276C16.9793 7.54453 16.9821 7.57593 16.9834 7.59556C16.9848 7.63371 16.9772 7.77449 16.9592 7.87578C16.7188 8.32975 15.7046 8.61034 15.2188 8.29315C15.15 8.20076 15.0745 8.0642 15.0584 8.02665C15.039 7.97885 15.0274 7.93881 15.0272 7.93803C15.0216 7.91958 15.0178 7.90462 15.0176 7.90392C15.0165 7.89971 15.0157 7.89643 15.0154 7.89538C15.0147 7.89248 15.0185 7.90801 15.0236 7.9261C15.0284 7.94318 15.0343 7.96244 15.0414 7.98347C15.0556 8.02516 15.075 8.07503 15.1018 8.12973L16.8982 7.25057ZM14.9948 7.78631C14.9982 7.82566 15 7.90391 15 8.18036H17C17 7.94139 17 7.75958 16.9872 7.61285L14.9948 7.78631ZM2.99999 8.18036C2.99999 7.90368 3.00177 7.82565 3.00519 7.78642L1.01275 7.61274C0.999946 7.75959 0.999989 7.94164 0.999989 8.18036H2.99999ZM3.00519 7.78641C3.00524 7.78583 3.00461 7.79332 3.00252 7.80739C3.00146 7.81458 3.00006 7.82313 2.99827 7.8329C2.99733 7.83802 2.9965 7.84227 2.99598 7.8449C2.99344 7.85773 2.99769 7.83677 3.00041 7.82106C3.00103 7.81747 3.00326 7.80457 3.00557 7.78796C3.00683 7.77856 3.00976 7.75341 3.01126 7.73765C3.01348 7.70682 3.01326 7.59037 3.00447 7.50525C2.78642 7.01403 1.71086 6.69783 1.19873 7.07287C1.14635 7.15514 1.08912 7.2728 1.07703 7.3039C1.06261 7.34296 1.05363 7.37542 1.05351 7.37583C1.04931 7.39054 1.0463 7.40248 1.0462 7.40286C1.04538 7.40608 1.04475 7.4086 1.04458 7.40929C1.04356 7.4134 1.04524 7.4066 1.04667 7.40106C1.0482 7.39516 1.04989 7.38887 1.05176 7.38225C1.05548 7.36909 1.05969 7.35539 1.06448 7.34126C1.07394 7.31338 1.0861 7.28258 1.10207 7.25001L2.89791 8.13031C2.92475 8.07556 2.94427 8.02562 2.95846 7.9838C2.96561 7.9627 2.97153 7.94334 2.9764 7.92608C2.97885 7.91742 2.98098 7.90948 2.98283 7.90235C2.98458 7.8956 2.98645 7.88799 2.98551 7.89177C2.98535 7.89241 2.98473 7.89491 2.98392 7.8981C2.98383 7.89845 2.98082 7.91037 2.97662 7.92506C2.97651 7.92547 2.96753 7.95793 2.95311 7.99698C2.94102 8.02808 2.88379 8.14574 2.83141 8.22801C2.31928 8.60305 1.24372 8.28685 1.02567 7.79563C1.01688 7.71051 1.01666 7.59407 1.01888 7.56324C1.02039 7.54748 1.02331 7.52233 1.02457 7.51293C1.02688 7.49633 1.02911 7.48343 1.02973 7.47985C1.03244 7.46421 1.03664 7.44344 1.03404 7.45658C1.0334 7.45983 1.03235 7.4652 1.03111 7.47197C1.02871 7.48503 1.02638 7.499 1.02416 7.514C1.01975 7.5437 1.01592 7.57638 1.01275 7.61275L3.00519 7.78641ZM-0.693815 6.36977C-1.04598 7.08824 -1.00001 7.87807 -1.00001 8.18036H0.999989C0.999989 7.95534 0.995311 7.79621 1.01202 7.6207C1.02764 7.45664 1.05869 7.33849 1.10205 7.25003L-0.693815 6.36977ZM0.549688 5.01866C0.310794 5.20381 -0.341656 5.65131 -0.693815 6.36977L1.10205 7.25003C1.14541 7.16157 1.21978 7.06465 1.33988 6.9518C1.46837 6.83109 1.597 6.73731 1.77485 6.59948L0.549688 5.01866ZM1.10203 7.25009C1.118 7.2175 1.1349 7.18901 1.15114 7.16446C1.15937 7.15202 1.16761 7.14032 1.17572 7.12933C1.18465 7.11724 1.19246 7.10739 1.19234 7.10754C1.19186 7.10815 1.19017 7.11029 1.18804 7.11304C1.18776 7.1134 1.17992 7.12344 1.17057 7.13622C1.17019 7.13673 1.14964 7.16435 1.12723 7.2006C1.10994 7.22966 1.05263 7.34693 1.02029 7.43813C1.02702 8.03616 1.89899 8.7233 2.44902 8.60844C2.528 8.56147 2.62763 8.48652 2.65224 8.46477C2.6645 8.45338 2.68368 8.43477 2.69073 8.42768C2.70309 8.41511 2.7124 8.40496 2.71498 8.40215C2.72641 8.38967 2.74095 8.37282 2.73214 8.38294C2.73049 8.38483 2.72767 8.38805 2.72421 8.39192C2.71762 8.39927 2.71174 8.40559 2.70671 8.41083C2.69688 8.42108 2.69137 8.42616 2.6918 8.42576L1.33408 6.95722C1.30728 6.982 1.28381 7.00504 1.26305 7.02669C1.25257 7.03763 1.24297 7.048 1.23415 7.05786C1.22957 7.06297 1.226 7.06705 1.22394 7.06942C1.21492 7.07978 1.22933 7.06307 1.24072 7.05065C1.24328 7.04784 1.25259 7.0377 1.26495 7.02513C1.272 7.01804 1.29118 6.99943 1.30343 6.98805C1.32804 6.9663 1.42768 6.89135 1.50665 6.84437C2.05668 6.72952 2.92865 7.41665 2.93538 8.01469C2.90304 8.10588 2.84573 8.22315 2.82844 8.25222C2.80603 8.28846 2.78548 8.31607 2.78511 8.31659C2.77577 8.32935 2.76795 8.33937 2.76768 8.33972C2.76556 8.34244 2.7639 8.34455 2.76345 8.34513C2.76065 8.34868 2.76575 8.34223 2.76986 8.33691C2.77434 8.33112 2.7793 8.32458 2.78464 8.31735C2.79527 8.30295 2.80695 8.28642 2.81924 8.26785C2.84359 8.23102 2.87111 8.18499 2.89795 8.13023L1.10203 7.25009ZM2.69188 8.42568C2.72077 8.39897 2.7813 8.34981 3 8.18031L1.77484 6.59949C1.58622 6.74567 1.44225 6.85719 1.334 6.9573L2.69188 8.42568ZM-1.00001 15C-1.00001 15.4168 -1.00419 15.9276 -0.945568 16.3638L1.03661 16.0973C0.999933 15.8245 0.999989 15.4696 0.999989 15H-1.00001ZM-0.945564 16.3638C-0.879256 16.857 -0.701748 17.5408 -0.121406 18.1213L1.29296 16.7072C1.14687 16.5611 1.07333 16.3705 1.0366 16.0973L-0.945564 16.3638ZM1.29248 16.7067C1.2056 16.6197 1.14559 16.5159 1.10525 16.4015C1.10387 16.3975 1.10138 16.3904 1.09843 16.3814C1.09698 16.377 1.09459 16.3697 1.0918 16.3605C1.08994 16.3544 1.08368 16.3338 1.07711 16.307C1.07344 16.2915 1.06472 16.2491 1.06017 16.2221C1.05293 16.1643 1.06026 15.9155 1.10748 15.7304C1.57488 15.1883 2.5635 15.212 2.79536 15.4042C2.84379 15.463 2.90509 15.5533 2.92164 15.5818C2.94434 15.6225 2.95921 15.6563 2.96103 15.6603C2.96617 15.6718 2.97003 15.681 2.97207 15.6859C2.98304 15.7124 2.99053 15.7339 2.99087 15.7348C2.99609 15.7496 3.00006 15.762 3.00286 15.7711C3.00874 15.7902 3.01268 15.8054 3.01516 15.8159C3.02011 15.8366 3.02042 15.8432 3.01875 15.8308L1.0366 16.0974C1.04579 16.1657 1.05686 16.2258 1.06964 16.2795C1.07604 16.3063 1.08316 16.3328 1.09114 16.3587C1.09499 16.3713 1.09973 16.3859 1.10543 16.402C1.106 16.4036 1.11363 16.4255 1.12468 16.4522C1.12672 16.4571 1.13059 16.4663 1.13574 16.4778C1.13756 16.4819 1.15244 16.5157 1.17513 16.5563C1.19169 16.5849 1.253 16.6752 1.30142 16.7339C1.53328 16.9262 2.5219 16.9499 2.9893 16.4077C3.03652 16.2227 3.04385 15.9739 3.03661 15.916C3.03206 15.8891 3.02335 15.8467 3.01967 15.8311C3.0131 15.8043 3.00683 15.7837 3.00497 15.7776C3.00218 15.7684 2.99978 15.7611 2.99832 15.7566C2.99536 15.7476 2.99285 15.7404 2.99144 15.7364C2.94941 15.6172 2.8647 15.4506 2.7075 15.2933L1.29248 16.7067ZM3.01876 15.8308C3.00431 15.7233 2.99999 15.5305 2.99999 15H0.999989C0.999989 15.4689 0.999909 15.8244 1.03659 16.0973L3.01876 15.8308ZM2.99999 15C2.46941 15 2.27676 14.9957 2.16937 14.9812L1.90257 16.9633C2.17556 17.0001 2.53122 17 2.99999 17V15ZM2.16919 14.9812C2.15677 14.9795 2.16324 14.9798 2.18395 14.9847C2.19435 14.9872 2.20949 14.9911 2.22851 14.997C2.2376 14.9998 2.24971 15.0036 2.26413 15.0087C2.26557 15.0092 2.28548 15.0162 2.31015 15.0263C2.31467 15.0281 2.3231 15.0316 2.33359 15.0362C2.33743 15.0379 2.36795 15.0511 2.40495 15.0711C2.43085 15.0855 2.51305 15.1385 2.56708 15.18C2.75494 15.385 2.82657 16.3963 2.25075 16.899C2.06438 16.9426 1.81789 16.9452 1.76302 16.9374C1.73787 16.9327 1.69835 16.9241 1.68391 16.9206C1.65915 16.9143 1.64009 16.9084 1.63447 16.9066C1.62602 16.904 1.61922 16.9017 1.6151 16.9004C1.60677 16.8976 1.60014 16.8953 1.59641 16.8939C1.48417 16.8541 1.38046 16.7946 1.29298 16.7072L2.707 15.2928C2.5492 15.135 2.38277 15.0508 2.26574 15.0093C2.26194 15.0079 2.25525 15.0056 2.24686 15.0028C2.24272 15.0014 2.2359 14.9992 2.22743 14.9965C2.2218 14.9948 2.20273 14.9889 2.17796 14.9826C2.16352 14.979 2.12399 14.9704 2.09884 14.9658C2.04396 14.958 1.79748 14.9605 1.61111 15.0041C1.03529 15.5068 1.10692 16.5181 1.29477 16.7231C1.34881 16.7647 1.43101 16.8176 1.45691 16.8321C1.49391 16.852 1.52444 16.8652 1.5283 16.8669C1.5388 16.8715 1.54725 16.875 1.55179 16.8769C1.57663 16.8871 1.59694 16.8942 1.59904 16.8949C1.61476 16.9004 1.62919 16.9051 1.6417 16.9089C1.66755 16.9169 1.69393 16.924 1.72076 16.9304C1.77434 16.9431 1.83446 16.9542 1.90274 16.9633L2.16919 14.9812ZM-0.121318 18.1214C0.459143 18.7018 1.14317 18.8793 1.63627 18.9455L1.90267 16.9634C1.62937 16.9266 1.43883 16.8531 1.29288 16.7071L-0.121318 18.1214ZM1.63609 18.9455C2.07234 19.0042 2.58349 19 2.99999 19V17C2.53023 17 2.17548 17.0001 1.90285 16.9634L1.63609 18.9455ZM8.99999 11.5C9.21952 11.5 9.37583 11.5632 9.42484 11.5999L10.6249 10C10.1257 9.62556 9.50126 9.49996 8.99999 9.49996V11.5ZM9.42483 11.5999C9.43119 11.6047 9.43494 11.6061 9.44477 11.6267C9.4582 11.6548 9.49999 11.7591 9.49999 12.0001H11.5C11.5 11.5265 11.4171 11.1154 11.2494 10.7645C11.0781 10.4059 10.8443 10.1645 10.6249 10L9.42483 11.5999ZM13.5 11.9999C13.4999 10.4296 12.874 9.18695 11.8251 8.40003L10.6249 9.99989C11.1243 10.3746 11.4999 10.9993 11.5 12L13.5 11.9999ZM11.8249 8.39989C10.8729 7.68606 9.77866 7.49996 8.99999 7.49996V9.49996C9.50052 9.49996 10.1253 9.62526 10.6251 10L11.8249 8.39989ZM9.49999 12.0001V17H11.5V12.0001H9.49999ZM10.5 18H12.5V16H10.5V18ZM13.5 17V12H11.5V17H13.5ZM8.99999 7.49996C8.22136 7.49996 7.12696 7.68604 6.17502 8.39993L7.37495 9.99999C7.87461 9.62528 8.49942 9.49996 8.99999 9.49996V7.49996ZM6.17493 8.4C5.12586 9.18692 4.49999 10.4296 4.49999 12H6.49999C6.49999 10.9993 6.87554 10.3746 7.37504 9.99992L6.17493 8.4ZM8.49999 12C8.49999 11.759 8.54176 11.6547 8.55519 11.6266C8.56501 11.606 8.56875 11.6046 8.57505 11.5999L7.37493 10C7.15553 10.1646 6.92176 10.406 6.75051 10.7645C6.58286 11.1155 6.49999 11.5265 6.49999 12H8.49999ZM8.5749 11.6C8.62409 11.5631 8.78051 11.5 8.99999 11.5V9.49996C8.49867 9.49996 7.87428 9.62558 7.37508 9.99989L8.5749 11.6ZM4.49999 12V17H6.49999V12H4.49999ZM5.49999 18H7.49999V16H5.49999V18ZM8.49999 17V12H6.49999V17H8.49999ZM6.49999 15H2.99999V17H6.49999V15ZM2.99999 19H6.49999V17H2.99999V19ZM7.49999 18V16H5.49999V18H7.49999Z" fill="black" mask="url(#path-1-inside-1_732_11088)"/>
</svg>
