<svg width="31" height="20" viewBox="0 0 31 20" fill="none" xmlns="http://www.w3.org/2000/svg">
<path d="M27.7242 0C29.3082 0 30.5922 1.28406 30.5922 2.86802V5.73604C30.5922 6.26403 30.1642 6.69205 29.6362 6.69205C28.0523 6.69205 26.7682 7.97611 26.7682 9.56007C26.7682 11.144 28.0523 12.4281 29.6362 12.4281C30.1642 12.4281 30.5922 12.8561 30.5922 13.3841V16.2521C30.5922 17.8361 29.3082 19.1201 27.7242 19.1201H2.86802C1.28406 19.1201 0 17.8361 0 16.2521V13.3841C0 12.8561 0.428019 12.4281 0.956007 12.4281C2.53997 12.4281 3.82403 11.144 3.82403 9.56007C3.82403 7.97611 2.53997 6.69205 0.956007 6.69205C0.428019 6.69205 0 6.26403 0 5.73604V2.86802C0 1.28406 1.28406 0 2.86802 0H27.7242ZM28.6802 2.86802C28.6802 2.34003 28.2522 1.91201 27.7242 1.91201H2.86802C2.34003 1.91201 1.91201 2.34003 1.91201 2.86802V4.87565C4.09385 5.31854 5.73604 7.24753 5.73604 9.56007C5.73604 11.8726 4.09385 13.8016 1.91201 14.2445V16.2521C1.91201 16.7801 2.34003 17.2081 2.86802 17.2081H27.7242C28.2522 17.2081 28.6802 16.7801 28.6802 16.2521V14.2445C26.4984 13.8016 24.8562 11.8726 24.8562 9.56007C24.8562 7.35765 26.3457 5.50313 28.3723 4.94891L28.6802 4.87565V2.86802Z" fill="#A09CAB"/>
</svg>
