<svg width="27" height="27" viewBox="0 0 27 27" fill="none" xmlns="http://www.w3.org/2000/svg">
<path d="M12.1716 0.0413877C19.4447 -0.531012 25.8048 4.90098 26.3771 12.1741C26.9496 19.4472 21.5175 25.8073 14.2445 26.3796C6.97131 26.9521 0.611257 21.52 0.0388567 14.247C0.00201764 13.7789 -0.00833575 13.2759 0.00655837 12.7788C0.0270502 12.0951 0.597882 11.5575 1.28154 11.578C1.9652 11.5985 2.50279 12.1693 2.4823 12.853C2.47 13.2635 2.47852 13.6772 2.50808 14.0527C2.97315 19.9621 8.1407 24.3755 14.0501 23.9105C19.9596 23.4454 24.373 18.2778 23.908 12.3684C23.4428 6.45902 18.2753 2.04552 12.3659 2.51061C9.4989 2.73623 6.90738 4.08002 5.08009 6.20057L4.744 6.60989L8.67195 6.61131L8.84 6.62263C9.44446 6.70463 9.91038 7.22278 9.91038 7.84974C9.91038 8.47671 9.44446 8.99487 8.84 9.07687L8.67195 9.08816H2.06712L1.89907 9.07687C1.34954 9.00232 0.914539 8.56732 0.840002 8.0178L0.828691 7.84974V1.24481L0.840002 1.07676C0.914539 0.527246 1.34954 0.0922454 1.89907 0.0176922L2.06712 0.00638122L2.23516 0.0176922C2.78469 0.0922454 3.21968 0.527246 3.29423 1.07676L3.30554 1.24481L3.30356 4.46925C5.54575 1.92653 8.69632 0.314898 12.1716 0.0413877ZM12.7952 6.61131L12.9632 6.62263C13.5128 6.69718 13.9478 7.13218 14.0224 7.68169L14.0336 7.84974V13.2089L16.9233 13.2105L17.0914 13.2218C17.6957 13.3038 18.1617 13.822 18.1617 14.449C18.1617 15.0759 17.6957 15.5941 17.0914 15.6762L16.9233 15.6874H12.7952L12.6271 15.6762C12.0776 15.6015 11.6426 15.1666 11.5681 14.6171L11.5568 14.449V7.84974L11.5681 7.68169C11.6426 7.13218 12.0776 6.69718 12.6271 6.62263L12.7952 6.61131Z" fill="#A09CAB"/>
</svg>
