<svg width="27" height="20" viewBox="0 0 27 20" fill="none" xmlns="http://www.w3.org/2000/svg">
<path d="M18.2094 13.4177C17.6802 13.4177 17.251 13.8469 17.251 14.3761C17.251 14.9054 17.6802 15.3345 18.2094 15.3345H22.043C22.5723 15.3345 23.0014 14.9054 23.0014 14.3761C23.0014 13.8469 22.5723 13.4177 22.043 13.4177H18.2094Z" fill="#A09CAB"/>
<path d="M0 3.83364C0 1.71638 1.71638 0 3.83364 0H23.0018C25.1191 0 26.8355 1.71638 26.8355 3.83364V15.3346C26.8355 17.4519 25.1191 19.1682 23.0018 19.1682H3.83364C1.71638 19.1682 0 17.4519 0 15.3346V3.83364ZM24.9186 3.83364C24.9186 2.77502 24.0605 1.91682 23.0018 1.91682H3.83364C2.77502 1.91682 1.91682 2.77502 1.91682 3.83364V5.75046H24.9186V3.83364ZM1.91682 15.3346C1.91682 16.3932 2.77502 17.2514 3.83364 17.2514H23.0018C24.0605 17.2514 24.9186 16.3932 24.9186 15.3346V7.66728H1.91682V15.3346Z" fill="#A09CAB"/>
</svg>
