<svg width="23" height="27" viewBox="0 0 23 27" fill="none" xmlns="http://www.w3.org/2000/svg">
<path d="M11.3233 0C17.577 0 22.6466 5.06961 22.6466 11.3233C22.6466 16.0102 19.0739 20.9226 12.0782 26.1694C11.6308 26.5049 11.0157 26.5049 10.5684 26.1694C3.57263 20.9226 0 16.0102 0 11.3233C0 5.06961 5.06961 0 11.3233 0ZM11.3233 2.51629C6.45932 2.51629 2.51629 6.45932 2.51629 11.3233C2.51629 14.7339 5.18116 18.6655 10.6279 23.0326L11.3233 23.5808L12.0186 23.0326C17.4654 18.6655 20.1303 14.7339 20.1303 11.3233C20.1303 6.45932 16.1873 2.51629 11.3233 2.51629ZM11.3233 8.807C12.713 8.807 13.8396 9.93358 13.8396 11.3233C13.8396 12.713 12.713 13.8396 11.3233 13.8396C9.93358 13.8396 8.807 12.713 8.807 11.3233C8.807 9.93358 9.93358 8.807 11.3233 8.807Z" fill="#A09CAB"/>
</svg>
