<svg width="25" height="25" viewBox="0 0 25 25" fill="none" xmlns="http://www.w3.org/2000/svg">
<path d="M22.5672 21.2921H2.22412V21.0249V12.3533H2.49133H10.3261L10.2252 12.681C10.1022 13.0399 10.0594 13.4216 10.1 13.7989C10.1406 14.1762 10.2636 14.54 10.4603 14.8645C10.657 15.1891 10.9225 15.4665 11.2382 15.6771C11.5539 15.8877 11.912 16.0265 12.2871 16.0835C12.6623 16.1405 13.0454 16.1145 13.4094 16.0071C13.7734 15.8998 14.1094 15.7138 14.3937 15.4624C14.6779 15.2109 14.9034 14.9001 15.0543 14.5519C15.2052 14.2037 15.2778 13.8266 15.2669 13.4473C15.2772 13.1834 15.2449 12.9195 15.1711 12.6658L15.0703 12.3381H22.8193V12.6053V21.277L22.5672 21.2921ZM2.71316 20.788H22.3303V12.8423H15.7358C15.7747 13.0365 15.7933 13.2342 15.7912 13.4322C15.8081 13.8489 15.7405 14.2647 15.5927 14.6546C15.4448 15.0445 15.2197 15.4006 14.9308 15.7014C14.6419 16.0021 14.2953 16.2415 13.9116 16.4049C13.5279 16.5684 13.1152 16.6527 12.6982 16.6527C12.2812 16.6527 11.8684 16.5684 11.4848 16.4049C11.1011 16.2415 10.7544 16.0021 10.4656 15.7014C10.1767 15.4006 9.95155 15.0445 9.80369 14.6546C9.65584 14.2647 9.58829 13.8489 9.60512 13.4322C9.60584 13.2343 9.6244 13.0369 9.66058 12.8423H2.71316V20.788Z" fill="#333333"/>
<path d="M12.7008 16.5277C12.2942 16.5277 11.8917 16.4477 11.5161 16.2921C11.1406 16.1365 10.7993 15.9085 10.5118 15.6211C9.93131 15.0405 9.60517 14.2532 9.60517 13.4322C9.60589 13.2343 9.62445 13.0368 9.66063 12.8423H2.34517L2.18384 12.5801L2.25442 12.4389L6.07096 5.50665H18.9625L19.0482 5.65286L22.8597 12.565L22.7135 12.8322H22.5522H15.7358C15.7747 13.0264 15.7933 13.2241 15.7913 13.4221C15.7926 13.829 15.7137 14.2322 15.559 14.6086C15.4044 14.985 15.177 15.3273 14.89 15.6157C14.6029 15.9042 14.2618 16.1332 13.8862 16.2897C13.5105 16.4462 13.1077 16.5271 12.7008 16.5277ZM2.88463 12.3381H10.3261L10.2253 12.6658C10.1022 13.0248 10.0595 13.4064 10.1001 13.7837C10.1407 14.161 10.2637 14.5248 10.4604 14.8494C10.657 15.1739 10.9226 15.4513 11.2383 15.662C11.5539 15.8726 11.912 16.0113 12.2872 16.0683C12.6624 16.1254 13.0455 16.0993 13.4095 15.992C13.7735 15.8847 14.1095 15.6987 14.3937 15.4472C14.6779 15.1958 14.9035 14.885 15.0544 14.5368C15.2052 14.1886 15.2778 13.8115 15.267 13.4322C15.2757 13.1733 15.2433 12.9146 15.1712 12.6658L15.0703 12.3381H22.1791L18.6499 6.00578H6.37346L2.88463 12.3381Z" fill="#333333"/>
</svg>
