<svg width="22" height="22" viewBox="0 0 22 22" fill="none" xmlns="http://www.w3.org/2000/svg">
<g clip-path="url(#clip0_4_2601)">
<path d="M18.103 5.02795C16.8853 5.02795 15.3456 4.70148 15.125 4.43237L15.0588 4.36178V4.23825C15.1427 3.93825 16.8721 2.7559 18.3235 2.6456C19.2463 2.61812 20.1551 2.87536 20.9265 3.38237C20.9692 3.41009 21.005 3.44732 21.031 3.49115C21.057 3.53497 21.0725 3.58422 21.0764 3.63503C21.0802 3.68584 21.0723 3.73686 21.0532 3.7841C21.0341 3.83134 21.0043 3.87352 20.9662 3.90737C20.2841 4.51812 19.431 4.90466 18.5221 5.01472C18.3897 5.02354 18.2485 5.02795 18.103 5.02795ZM15.5 4.26472C16.4662 4.57745 17.4813 4.71199 18.4956 4.66178C19.3288 4.55731 20.1104 4.20187 20.7368 3.64266C20.0252 3.20893 19.2053 2.9856 18.3721 2.99854C17.3202 3.16133 16.3297 3.598 15.5 4.26472Z" fill="#283483"/>
<path d="M6.48241 21.2588C5.06869 21.3132 3.66272 21.0257 2.38388 20.4206C1.33388 19.8427 0.747111 19.128 0.619169 18.2941C0.451522 16.9706 1.53682 15.7221 2.19858 15.0912C3.27064 14.0633 3.5574 13.6618 4.40446 9.3559C5.15005 5.59266 7.18829 3.36914 10.1398 3.09561H10.2368C12.3767 2.99974 14.4839 3.64657 16.2015 4.92649C17.0596 5.53203 17.7862 6.30509 18.3374 7.19904C18.8887 8.093 19.2531 9.08933 19.4089 10.128C19.678 12.2897 18.9015 14.5706 17.1589 16.7456C14.6706 19.8383 10.1221 21.2588 6.48241 21.2588ZM4.6427 9.40002L4.85888 9.44413C4.02946 13.7059 3.72946 14.253 2.52064 15.4088C1.91623 15.9824 0.941228 17.1162 1.07799 18.2368C1.16623 18.9206 1.67799 19.525 2.59564 20.0324C5.62652 21.7 13.3824 20.7338 16.8501 16.4368C18.5089 14.3809 19.2545 12.2147 19.003 10.1721C18.8528 9.19291 18.5065 8.25413 17.985 7.41192C17.4635 6.56972 16.7773 5.84141 15.9677 5.27061C14.3445 4.05001 12.35 3.42672 10.3206 3.5059L10.2059 3.55884C7.4177 3.81472 5.56917 5.85737 4.85446 9.46619L4.6427 9.40002Z" fill="#283483"/>
<path d="M15.1999 4.70591L14.2646 4.30443L15.3676 1.25591L16.6382 1.79414L15.1999 4.70591ZM14.7058 4.11473L15.0323 4.25149L16.1573 1.97943L15.5749 1.72796L14.7058 4.11473Z" fill="#283483"/>
</g>
<defs>
<clipPath id="clip0_4_2601">
<rect width="21.1765" height="21.1765" fill="white" transform="translate(0.0588379 0.470596)"/>
</clipPath>
</defs>
</svg>
