<svg width="25" height="26" viewBox="0 0 25 26" fill="none" xmlns="http://www.w3.org/2000/svg">
<path d="M18.8606 23.6195C18.7411 23.6201 18.6236 23.5887 18.5203 23.5285C18.417 23.4683 18.3317 23.3816 18.2733 23.2773L17.6145 22.1333C17.6096 22.1226 17.6017 22.1135 17.5917 22.1071C17.5817 22.1008 17.5701 22.0975 17.5583 22.0975C17.5465 22.0975 17.5349 22.1008 17.5249 22.1071C17.515 22.1135 17.5071 22.1226 17.5021 22.1333L16.8535 23.2773C16.7909 23.3765 16.7042 23.4582 16.6015 23.5148C16.4988 23.5714 16.3835 23.6011 16.2662 23.6011C16.1489 23.6011 16.0336 23.5714 15.9309 23.5148C15.8282 23.4582 15.7415 23.3765 15.6789 23.2773L15.0201 22.1333C14.9894 22.0771 14.9384 22.0771 14.9077 22.1333L14.2489 23.2773C14.1905 23.3816 14.1052 23.4683 14.0019 23.5285C13.8986 23.5887 13.7811 23.6201 13.6616 23.6195C13.542 23.6201 13.4245 23.5887 13.3212 23.5285C13.2179 23.4683 13.1326 23.3816 13.0742 23.2773L12.4154 22.1333C12.3848 22.0771 12.3337 22.0771 12.3031 22.1333L11.6442 23.2773C11.5816 23.3765 11.495 23.4582 11.3923 23.5148C11.2896 23.5714 11.1742 23.6011 11.0569 23.6011C10.9397 23.6011 10.8243 23.5714 10.7216 23.5148C10.6189 23.4582 10.5322 23.3765 10.4696 23.2773L9.81078 22.1333C9.78014 22.0771 9.72907 22.0771 9.69842 22.1333L9.0396 23.2773C8.9812 23.3816 8.89592 23.4683 8.79263 23.5285C8.68935 23.5887 8.57182 23.6201 8.45228 23.6195C8.33274 23.6201 8.21522 23.5887 8.11193 23.5285C8.00864 23.4683 7.92336 23.3816 7.86496 23.2773L7.20614 22.1333C7.1755 22.0771 7.12442 22.0771 7.09378 22.1333L6.43496 23.2773C6.37656 23.3816 6.29128 23.4683 6.18799 23.5285C6.0847 23.5887 5.96718 23.6201 5.84764 23.6195C5.72734 23.6205 5.60897 23.5893 5.50479 23.5291C5.40062 23.4689 5.31444 23.382 5.25521 23.2773L4.55553 22.0822C4.36969 21.7589 4.27113 21.3928 4.26953 21.0199V4.10508C4.26953 3.69873 4.43095 3.30902 4.71829 3.02169C5.00562 2.73436 5.39532 2.57294 5.80167 2.57294H18.8964C19.3027 2.57294 19.6924 2.73436 19.9798 3.02169C20.2671 3.30902 20.4285 3.69873 20.4285 4.10508V21.0199C20.4287 21.3924 20.3319 21.7585 20.1476 22.0822L19.4582 23.2773C19.3989 23.3831 19.3121 23.4709 19.2068 23.5312C19.1016 23.5914 18.9819 23.622 18.8606 23.6195ZM17.5583 21.5766C17.6618 21.5744 17.764 21.6003 17.8539 21.6515C17.9439 21.7028 18.0182 21.7775 18.069 21.8677L18.7176 23.0373C18.731 23.0636 18.7515 23.0858 18.7767 23.1011C18.802 23.1164 18.8311 23.1244 18.8606 23.1241C18.8902 23.1244 18.9193 23.1164 18.9445 23.1011C18.9698 23.0858 18.9903 23.0636 19.0036 23.0373L19.6931 21.8422C19.8408 21.5934 19.9185 21.3093 19.9178 21.0199V4.10508C19.9178 3.83418 19.8102 3.57438 19.6186 3.38282C19.4271 3.19127 19.1673 3.08365 18.8964 3.08365H5.78635C5.51545 3.08365 5.25565 3.19127 5.06409 3.38282C4.87254 3.57438 4.76492 3.83418 4.76492 4.10508V21.0199C4.76571 21.3036 4.84148 21.5819 4.98453 21.8269L5.68421 23.0373C5.69926 23.0633 5.72082 23.085 5.74678 23.1003C5.77275 23.1155 5.80222 23.1237 5.83232 23.1241C5.86165 23.1233 5.89027 23.1149 5.91535 23.0997C5.94043 23.0844 5.9611 23.0629 5.97532 23.0373L6.63925 21.8779C6.69253 21.7902 6.76751 21.7177 6.85696 21.6674C6.94641 21.617 7.04732 21.5906 7.14996 21.5906C7.2526 21.5906 7.35351 21.617 7.44296 21.6674C7.53241 21.7177 7.60739 21.7902 7.66067 21.8779L8.29396 23.0373C8.30731 23.0636 8.32778 23.0858 8.35306 23.1011C8.37833 23.1164 8.4074 23.1244 8.43696 23.1241C8.46653 23.1244 8.49559 23.1164 8.52086 23.1011C8.54614 23.0858 8.56661 23.0636 8.57996 23.0373L9.23878 21.8933C9.29206 21.8055 9.36704 21.733 9.4565 21.6827C9.54595 21.6324 9.64686 21.6059 9.7495 21.6059C9.85213 21.6059 9.95304 21.6324 10.0425 21.6827C10.1319 21.733 10.2069 21.8055 10.2602 21.8933L10.8986 23.0373C10.9127 23.0628 10.9335 23.0841 10.9586 23.0989C10.9837 23.1137 11.0124 23.1216 11.0416 23.1216C11.0708 23.1216 11.0995 23.1137 11.1246 23.0989C11.1498 23.0841 11.1705 23.0628 11.1846 23.0373L11.8485 21.8933C11.9022 21.81 11.9759 21.7415 12.0629 21.6941C12.1499 21.6466 12.2474 21.6218 12.3465 21.6218C12.4456 21.6218 12.5431 21.6466 12.63 21.6941C12.717 21.7415 12.7907 21.81 12.8444 21.8933L13.5032 23.0373C13.5175 23.0629 13.5381 23.0844 13.5632 23.0997C13.5883 23.1149 13.6169 23.1233 13.6462 23.1241C13.6756 23.1233 13.7042 23.1149 13.7293 23.0997C13.7544 23.0844 13.775 23.0629 13.7892 23.0373L14.4481 21.8933C14.5017 21.81 14.5755 21.7415 14.6624 21.6941C14.7494 21.6466 14.8469 21.6218 14.946 21.6218C15.0451 21.6218 15.1426 21.6466 15.2296 21.6941C15.3166 21.7415 15.3903 21.81 15.444 21.8933L16.1079 23.0373C16.1229 23.0633 16.1445 23.085 16.1705 23.1003C16.1964 23.1155 16.2259 23.1237 16.256 23.1241C16.2854 23.1238 16.3143 23.1156 16.3394 23.1004C16.3646 23.0851 16.3852 23.0633 16.399 23.0373L17.0578 21.8933C17.1058 21.8017 17.1776 21.7249 17.2658 21.671C17.3539 21.617 17.455 21.5879 17.5583 21.5868V21.5766Z" fill="#333333"/>
<path d="M18.1917 8.06312H6.50143C6.42074 8.0707 6.33935 8.06135 6.26247 8.03567C6.1856 8.00999 6.11494 7.96854 6.055 7.91397C5.99507 7.85941 5.94719 7.79293 5.91443 7.7188C5.88167 7.64467 5.86475 7.56451 5.86475 7.48346C5.86475 7.40241 5.88167 7.32225 5.91443 7.24812C5.94719 7.17399 5.99507 7.10751 6.055 7.05294C6.11494 6.99838 6.1856 6.95693 6.26247 6.93125C6.33935 6.90557 6.42074 6.89622 6.50143 6.9038H18.1917C18.336 6.91736 18.4701 6.9843 18.5677 7.0915C18.6653 7.19871 18.7194 7.33848 18.7194 7.48346C18.7194 7.62844 18.6653 7.76821 18.5677 7.87542C18.4701 7.98262 18.336 8.04956 18.1917 8.06312ZM6.50143 7.31237C6.47649 7.30804 6.4509 7.30923 6.42646 7.31583C6.40203 7.32243 6.37933 7.3343 6.35996 7.3506C6.34059 7.3669 6.32502 7.38724 6.31433 7.41019C6.30365 7.43314 6.29812 7.45814 6.29812 7.48346C6.29812 7.50877 6.30365 7.53378 6.31433 7.55673C6.32502 7.57968 6.34059 7.60002 6.35996 7.61632C6.37933 7.63262 6.40203 7.64449 6.42646 7.65109C6.4509 7.65769 6.47649 7.65887 6.50143 7.65455H18.1917C18.232 7.64756 18.2685 7.62656 18.2949 7.59526C18.3212 7.56396 18.3357 7.52437 18.3357 7.48346C18.3357 7.44255 18.3212 7.40296 18.2949 7.37166C18.2685 7.34036 18.232 7.31936 18.1917 7.31237H6.50143Z" fill="#333333"/>
<path d="M18.1917 10.6116H6.50143C6.42074 10.6192 6.33935 10.6098 6.26247 10.5841C6.1856 10.5585 6.11494 10.517 6.055 10.4624C5.99507 10.4079 5.94719 10.3414 5.91443 10.2673C5.88167 10.1931 5.86475 10.113 5.86475 10.0319C5.86475 9.95087 5.88167 9.87071 5.91443 9.79658C5.94719 9.72245 5.99507 9.65597 6.055 9.60141C6.11494 9.54684 6.1856 9.50539 6.26247 9.47971C6.33935 9.45403 6.42074 9.44468 6.50143 9.45226H18.1917C18.336 9.46582 18.4701 9.53276 18.5677 9.63996C18.6653 9.74717 18.7194 9.88694 18.7194 10.0319C18.7194 10.1769 18.6653 10.3167 18.5677 10.4239C18.4701 10.5311 18.336 10.598 18.1917 10.6116ZM6.50143 9.86083C6.47649 9.85651 6.4509 9.85769 6.42646 9.86429C6.40203 9.87089 6.37933 9.88276 6.35996 9.89906C6.34059 9.91536 6.32502 9.9357 6.31433 9.95865C6.30365 9.9816 6.29812 10.0066 6.29812 10.0319C6.29812 10.0572 6.30365 10.0822 6.31433 10.1052C6.32502 10.1281 6.34059 10.1485 6.35996 10.1648C6.37933 10.1811 6.40203 10.1929 6.42646 10.1996C6.4509 10.2062 6.47649 10.2073 6.50143 10.203H18.1917C18.232 10.196 18.2685 10.175 18.2949 10.1437C18.3212 10.1124 18.3357 10.0728 18.3357 10.0319C18.3357 9.99101 18.3212 9.95142 18.2949 9.92012C18.2685 9.88882 18.232 9.86782 18.1917 9.86083H6.50143Z" fill="#333333"/>
<path d="M18.1917 13.16H6.50143C6.42074 13.1676 6.33935 13.1583 6.26247 13.1326C6.1856 13.1069 6.11494 13.0655 6.055 13.0109C5.99507 12.9563 5.94719 12.8899 5.91443 12.8157C5.88167 12.7416 5.86475 12.6614 5.86475 12.5804C5.86475 12.4993 5.88167 12.4192 5.91443 12.345C5.94719 12.2709 5.99507 12.2044 6.055 12.1499C6.11494 12.0953 6.1856 12.0539 6.26247 12.0282C6.33935 12.0025 6.42074 11.9931 6.50143 12.0007H18.1917C18.336 12.0143 18.4701 12.0812 18.5677 12.1884C18.6653 12.2956 18.7194 12.4354 18.7194 12.5804C18.7194 12.7254 18.6653 12.8651 18.5677 12.9723C18.4701 13.0795 18.336 13.1465 18.1917 13.16ZM6.50143 12.4093C6.47649 12.405 6.4509 12.4061 6.42646 12.4128C6.40203 12.4194 6.37933 12.4312 6.35996 12.4475C6.34059 12.4638 6.32502 12.4842 6.31433 12.5071C6.30365 12.5301 6.29812 12.5551 6.29812 12.5804C6.29812 12.6057 6.30365 12.6307 6.31433 12.6537C6.32502 12.6766 6.34059 12.6969 6.35996 12.7132C6.37933 12.7295 6.40203 12.7414 6.42646 12.748C6.4509 12.7546 6.47649 12.7558 6.50143 12.7515H18.1917C18.232 12.7445 18.2685 12.7235 18.2949 12.6922C18.3212 12.6609 18.3357 12.6213 18.3357 12.5804C18.3357 12.5395 18.3212 12.4999 18.2949 12.4686C18.2685 12.4373 18.232 12.4163 18.1917 12.4093H6.50143Z" fill="#333333"/>
<path d="M18.1917 15.7085H6.50142C6.34836 15.7085 6.20158 15.6477 6.09335 15.5395C5.98512 15.4313 5.92432 15.2845 5.92432 15.1314C5.92432 14.9784 5.98512 14.8316 6.09335 14.7234C6.20158 14.6151 6.34836 14.5543 6.50142 14.5543H18.1917C18.3447 14.5543 18.4915 14.6151 18.5998 14.7234C18.708 14.8316 18.7688 14.9784 18.7688 15.1314C18.7688 15.2845 18.708 15.4313 18.5998 15.5395C18.4915 15.6477 18.3447 15.7085 18.1917 15.7085ZM6.50142 14.9629C6.47886 14.9622 6.4564 14.9661 6.43536 14.9742C6.41432 14.9824 6.39513 14.9947 6.37894 15.0104C6.36274 15.0261 6.34987 15.0449 6.34108 15.0657C6.33229 15.0865 6.32777 15.1089 6.32778 15.1314C6.32911 15.1766 6.34799 15.2195 6.38041 15.2509C6.41283 15.2824 6.45624 15.3 6.50142 15.3H18.1917C18.2364 15.3 18.2792 15.2822 18.3108 15.2506C18.3425 15.219 18.3602 15.1761 18.3602 15.1314C18.3602 15.0867 18.3425 15.0439 18.3108 15.0123C18.2792 14.9806 18.2364 14.9629 18.1917 14.9629H6.50142Z" fill="#333333"/>
<path d="M18.1917 18.257H6.50142C6.34836 18.257 6.20158 18.1962 6.09335 18.088C5.98512 17.9797 5.92432 17.8329 5.92432 17.6799C5.92432 17.5268 5.98512 17.38 6.09335 17.2718C6.20158 17.1636 6.34836 17.1028 6.50142 17.1028H18.1917C18.3447 17.1028 18.4915 17.1636 18.5998 17.2718C18.708 17.38 18.7688 17.5268 18.7688 17.6799C18.7688 17.8329 18.708 17.9797 18.5998 18.088C18.4915 18.1962 18.3447 18.257 18.1917 18.257ZM6.50142 17.5114C6.47929 17.5114 6.45738 17.5157 6.43693 17.5242C6.41648 17.5327 6.3979 17.5451 6.38225 17.5607C6.3666 17.5764 6.35419 17.5949 6.34572 17.6154C6.33725 17.6358 6.33289 17.6578 6.33289 17.6799C6.33289 17.702 6.33725 17.7239 6.34572 17.7444C6.35419 17.7648 6.3666 17.7834 6.38225 17.7991C6.3979 17.8147 6.41648 17.8271 6.43693 17.8356C6.45738 17.8441 6.47929 17.8484 6.50142 17.8484H18.1917C18.2364 17.8484 18.2792 17.8307 18.3108 17.7991C18.3425 17.7675 18.3602 17.7246 18.3602 17.6799C18.3602 17.6352 18.3425 17.5923 18.3108 17.5607C18.2792 17.5291 18.2364 17.5114 18.1917 17.5114H6.50142Z" fill="#333333"/>
</svg>
