<svg width="20" height="19" viewBox="0 0 20 19" fill="none" xmlns="http://www.w3.org/2000/svg">
<path d="M11.0954 18.9791H7.9645L7.6015 17.127C6.89226 16.9486 6.21178 16.6708 5.58025 16.302L4.0375 17.3497L1.81 15.1387L2.83713 13.6125C2.4186 12.9301 2.10829 12.1871 1.91725 11.4097L0.135254 11.0632V7.91586L1.93375 7.56523C2.12495 6.81788 2.42665 6.10325 2.82888 5.44498L1.79763 3.91873L4.01275 1.72836L5.56375 2.76786C6.19761 2.39781 6.88098 2.12001 7.59325 1.94286L7.9645 0.0371094H11.0954L11.4625 1.93048C12.2707 2.13293 13.041 2.46444 13.7436 2.91223L15.439 1.81498L17.6129 4.06723L16.4125 5.77911C16.7159 6.33413 16.95 6.92429 17.1096 7.53636L19.135 7.94886V11.0797L17.1261 11.4675C16.9516 12.1578 16.6837 12.8212 16.33 13.4392L17.4891 15.1552L15.274 17.3704L13.6034 16.2401C12.9376 16.6402 12.2161 16.9391 11.4625 17.127L11.0954 18.9791ZM8.30275 18.5666H10.753L11.0995 16.7887L11.2274 16.7557C12.0322 16.569 12.7993 16.2468 13.4961 15.8029L13.6116 15.7327L15.2245 16.8176L16.957 15.0851L15.8433 13.4351L15.9093 13.3237C16.2995 12.6691 16.5862 11.9581 16.759 11.2159L16.7879 11.0839L18.7225 10.7085V8.27061L16.7714 7.89111L16.7425 7.76323C16.5836 7.09562 16.3338 6.45299 16 5.85336L15.934 5.74198L17.089 4.09198L15.3771 2.34298L13.7271 3.40723L13.6116 3.33298C12.884 2.84832 12.0749 2.49896 11.2233 2.30173L11.0913 2.26873L10.7365 0.437234H8.30275L7.948 2.26873L7.816 2.30173C7.05582 2.48147 6.32901 2.78082 5.66275 3.18861L5.55138 3.25873L4.06638 2.25223L2.33388 3.98473L3.31975 5.44086L3.24963 5.55223C2.81218 6.24696 2.49297 7.00943 2.305 7.80861L2.272 7.93648L0.547754 8.27061V10.7209L2.25963 11.055L2.2885 11.187C2.47499 12.01 2.80299 12.7944 3.25788 13.5052L3.33213 13.6207L2.34213 15.0851L4.07463 16.8176L5.56788 15.8111L5.68338 15.8771C6.34709 16.2822 7.0712 16.5788 7.82838 16.7557L7.95625 16.7887L8.30275 18.5666ZM9.63513 12.9649C8.95273 12.9657 8.28543 12.764 7.71769 12.3854C7.14996 12.0068 6.70732 11.4682 6.4458 10.8379C6.18428 10.2077 6.11564 9.51393 6.24857 8.8446C6.3815 8.17528 6.71002 7.56043 7.19255 7.0779C7.67508 6.59537 8.28992 6.26685 8.95925 6.13392C9.62858 6.00099 10.3223 6.06963 10.9526 6.33115C11.5829 6.59267 12.1214 7.03531 12.5 7.60305C12.8787 8.17078 13.0803 8.83808 13.0795 9.52048C13.0773 10.4333 12.7137 11.3081 12.0683 11.9536C11.4228 12.5991 10.548 12.9627 9.63513 12.9649ZM9.63513 6.48448C9.03449 6.48367 8.44711 6.66103 7.9473 6.99414C7.44748 7.32724 7.05771 7.80111 6.82729 8.3558C6.59687 8.91048 6.53616 9.52105 6.65284 10.1102C6.76952 10.6994 7.05834 11.2408 7.48277 11.6658C7.9072 12.0908 8.44815 12.3804 9.03719 12.4978C9.62623 12.6153 10.2369 12.5554 10.7919 12.3258C11.3469 12.0961 11.8213 11.707 12.1551 11.2076C12.4888 10.7083 12.667 10.1211 12.667 9.52048C12.6659 8.71634 12.3463 7.94537 11.778 7.37637C11.2098 6.80736 10.4393 6.48667 9.63513 6.48448Z" fill="#333333"/>
</svg>
